<svg width="232" height="58" viewBox="0 0 232 58" fill="none" xmlns="http://www.w3.org/2000/svg">
<path d="M39.2328 4.84744C40.8164 6.28017 41.6795 7.68412 41.8635 9.81887C41.8543 11.4797 41.1867 12.8006 40.4343 14.2517C40.7555 14.2654 41.0768 14.2791 41.4078 14.2932C43.828 14.6459 45.83 16.4152 47.3023 18.2832C49.6014 21.5876 50.0727 25.2346 49.3828 29.166C46.9991 38.8951 39.7046 45.8237 31.5219 50.9924C30.8228 51.3717 30.8228 51.3717 30.16 51.3717C30.6185 50.3019 31.1169 49.7297 32.0243 49.0103C37.3443 44.4748 42.8079 35.9019 43.4171 28.8346C43.4423 28.5582 43.4675 28.2817 43.4935 27.9969C43.6166 25.6247 43.2061 23.7944 41.76 21.8746C40.3144 20.4966 38.6302 20.457 36.7057 20.4039C32.8718 20.5143 28.5798 21.4153 25.52 23.8632C24.3426 23.3902 23.9116 22.8791 23.2828 21.7917C21.2895 18.7134 18.1294 17.4438 14.9246 15.9034C13.8107 15.3641 12.7059 14.8071 11.6 14.2517C12.4034 13.4483 12.6252 13.4733 13.7335 13.4439C16.9459 13.4949 20.5368 14.4231 23.433 15.8195C25.4199 16.5846 26.9987 15.7759 28.9171 15.0596C31.0867 14.2517 31.0867 14.2517 31.8171 14.2517C31.5984 13.9373 31.3796 13.6228 31.1543 13.2989C30.2841 11.7606 30.2237 10.3452 30.4914 8.61744C31.0552 6.85973 31.8862 5.63284 33.4743 4.6403C35.4019 4.03842 37.4081 3.96888 39.2328 4.84744Z" fill="#0492D7"/>
<path d="M89.0921 18.6012C89.9768 19.7639 90.1741 20.4153 90.1485 21.8741C89.6722 23.0215 89.2959 23.6627 88.1276 24.1565C86.9445 24.4666 86.0847 24.584 84.8871 24.2976C84.2095 23.8791 83.7379 23.4381 83.1885 22.8683C82.2398 25.1839 81.3721 27.5191 80.5475 29.8814C80.3011 30.582 80.0547 31.2827 79.8082 31.9833C79.426 33.0725 79.0442 34.1618 78.6629 35.2514C78.291 36.3134 77.9175 37.3749 77.5439 38.4364C77.4316 38.7586 77.3194 39.0808 77.2038 39.4127C77.0953 39.7203 76.9869 40.0279 76.8752 40.3448C76.7821 40.6108 76.6889 40.8768 76.5929 41.1508C76.0784 42.4786 75.4811 43.7729 74.9028 45.0741C72.4966 45.0741 70.0905 45.0741 67.6114 45.0741C66.8336 43.324 66.1004 41.6642 65.4606 39.8768C65.3136 39.4678 65.1667 39.0587 65.0153 38.6373C64.8599 38.201 64.7047 37.7646 64.5496 37.3282C64.3872 36.8733 64.2248 36.4185 64.0624 35.9636C63.7249 35.0172 63.3882 34.0703 63.0522 33.1233C62.6208 31.908 62.186 30.6939 61.7504 29.4801C61.4152 28.5445 61.0822 27.608 60.7499 26.6713C60.5905 26.223 60.4302 25.7749 60.269 25.3271C60.0453 24.7045 59.825 24.0807 59.6049 23.4568C59.4155 22.925 59.4155 22.925 59.2223 22.3824C58.9942 21.5426 58.9942 21.5426 59.3257 20.8798C60.2998 20.8351 61.2718 20.8022 62.2464 20.7762C62.6607 20.7554 62.6607 20.7554 63.0834 20.7341C63.3493 20.7288 63.6153 20.7234 63.8893 20.7179C64.134 20.7093 64.3787 20.7006 64.6309 20.6916C65.2914 20.8798 65.2914 20.8798 65.8074 21.515C66.4584 22.9059 66.923 24.3302 67.3861 25.7929C67.4869 26.1053 67.5877 26.4178 67.6916 26.7396C68.012 27.7341 68.3297 28.7294 68.6471 29.7248C68.9674 30.7235 69.2883 31.7221 69.6097 32.7206C69.8093 33.3411 70.0081 33.9619 70.2062 34.5829C70.3407 35.0028 70.3407 35.0028 70.4779 35.4312C70.5566 35.6779 70.6353 35.9246 70.7164 36.1787C70.9177 36.8091 70.9177 36.8091 71.2571 37.4512C71.9597 35.3517 72.6616 33.2519 73.3629 31.152C73.6016 30.4376 73.8405 29.7233 74.0795 29.009C74.423 27.9824 74.7659 26.9557 75.1087 25.9289C75.2157 25.6095 75.3227 25.2901 75.433 24.961C75.5325 24.6625 75.632 24.364 75.7345 24.0565C75.8221 23.7945 75.9097 23.5325 75.9999 23.2625C76.2401 22.5412 76.2401 22.5412 76.3837 21.7998C76.4419 21.6056 76.5 21.4113 76.56 21.2112C77.657 20.6627 78.8771 20.8463 80.0814 20.8591C80.48 20.8613 80.48 20.8613 80.8867 20.8636C81.5435 20.8675 82.2003 20.8734 82.8571 20.8798C82.8998 20.6217 82.9426 20.3637 82.9866 20.0978C83.2432 18.9857 83.6197 18.5927 84.5142 17.8969C86.2351 17.3082 87.6439 17.507 89.0921 18.6012Z" fill="#2F3131"/>
<path d="M4.97148 16.2402C5.29959 16.459 5.62771 16.6777 5.96576 16.9031C5.85639 18.2155 5.74702 19.528 5.63434 20.8802C5.85308 20.8802 6.07182 20.8802 6.29719 20.8802C6.38606 20.6273 6.47492 20.3744 6.56648 20.1138C6.94157 19.2649 7.26239 18.8264 7.95434 18.2288C8.28245 18.3382 8.61056 18.4475 8.94862 18.5602C8.94862 19.4352 8.94862 20.3102 8.94862 21.2117C9.15369 21.0955 9.35876 20.9792 9.57005 20.8595C9.80246 20.757 10.0349 20.6544 10.2743 20.5488C10.4931 20.6582 10.7118 20.7675 10.9372 20.8802C10.8359 21.2088 10.7347 21.5373 10.6304 21.8758C10.0082 24.0754 9.70568 26.2285 9.94291 28.5031C10.6971 29.7756 11.6683 30.408 12.9258 31.1545C13.4628 31.4871 13.4628 31.4871 14.0107 31.8264C14.9642 32.3983 15.9253 32.9452 16.9029 33.4745C16.8072 33.2583 16.7115 33.0422 16.6129 32.8194C15.3172 29.769 15.3172 29.769 15.5772 28.1717C16.0743 27.2188 16.0743 27.2188 16.5715 26.5145C17.3638 26.5883 17.3638 26.5883 18.2286 26.8459C18.5756 27.4868 18.5756 27.4868 18.8086 28.3167C19.5755 30.4844 20.938 31.8648 22.5372 33.4745C22.7764 33.7223 23.0157 33.9701 23.2622 34.2254C24.1594 35.143 25.0127 36.0003 26.0586 36.7474C28.3818 38.826 29.3097 41.6046 29.6215 44.6188C29.5159 47.9651 28.243 51.0959 26.1829 53.6917C25.9642 53.5823 25.7454 53.4729 25.5201 53.3602C25.3305 52.709 25.1614 52.0517 25.0022 51.3924C23.8216 47.4208 20.6971 45.2388 17.5658 42.7545C16.1118 41.5602 14.6826 40.3369 13.2572 39.1088C13.084 38.961 12.9107 38.8132 12.7322 38.6609C8.1931 34.7653 3.56448 29.4891 2.88322 23.287C2.87307 21.0571 2.93983 18.3855 4.50929 16.6442C4.66181 16.5109 4.81434 16.3776 4.97148 16.2402Z" fill="#2F3131"/>
<path d="M114.84 27.0739C115.004 27.2175 115.168 27.361 115.337 27.5089C115.556 26.9621 115.775 26.4152 116 25.8518C116.932 25.8429 117.864 25.8363 118.796 25.8311C119.062 25.8283 119.328 25.8255 119.602 25.8227C120.28 25.8198 120.957 25.8345 121.634 25.8518C122.2 26.4171 122.008 27.1468 122.009 27.9193C122.01 28.2898 122.011 28.6603 122.012 29.042C122.011 29.4453 122.01 29.8485 122.01 30.2639C122.01 30.6746 122.01 31.0853 122.011 31.5085C122.011 32.3789 122.011 33.2493 122.009 34.1197C122.007 35.2376 122.008 36.3555 122.01 37.4734C122.012 38.5364 122.011 39.5995 122.01 40.6625C122.01 41.0657 122.011 41.469 122.012 41.8844C122.01 42.4401 122.01 42.4401 122.009 43.0071C122.008 43.3351 122.008 43.6631 122.008 44.001C121.966 44.7432 121.966 44.7432 121.634 45.0746C120.686 45.0989 119.745 45.1053 118.796 45.0954C118.529 45.0939 118.262 45.0924 117.987 45.0908C117.324 45.0869 116.662 45.081 116 45.0746C115.781 44.5278 115.563 43.9809 115.337 43.4175C115.18 43.5333 115.024 43.6491 114.862 43.7683C112.948 45.0851 111.319 45.6011 108.995 45.3206C106.241 44.7436 104.337 43.0164 102.743 40.7661C101.327 38.1782 101.349 34.9353 101.978 32.1166C102.79 29.6452 104.003 27.7591 106.244 26.3904C109.201 24.9923 112.142 25.2528 114.84 27.0739ZM108.709 32.4804C107.822 34.1721 107.899 35.968 108.377 37.7832C109.109 38.7022 109.655 39.2506 110.697 39.7718C112.1 39.9067 112.857 39.8565 114.115 39.1918C115.175 38.3046 115.596 37.6982 115.768 36.3241C115.778 34.2441 115.549 33.1245 114.136 31.5482C112.202 30.5812 110.141 30.8312 108.709 32.4804Z" fill="#2F3131"/>
<path d="M209.473 18.8477C209.743 18.8485 210.013 18.8494 210.291 18.8502C210.561 18.8494 210.831 18.8485 211.11 18.8477C211.783 18.8917 211.783 18.8917 212.114 19.2231C212.147 19.9977 212.159 20.7625 212.157 21.5373C212.158 21.7792 212.158 22.0212 212.159 22.2705C212.16 23.0741 212.159 23.8777 212.158 24.6813C212.158 25.2374 212.159 25.7934 212.159 26.3494C212.16 27.5163 212.159 28.6832 212.157 29.85C212.156 31.3491 212.157 32.8482 212.159 34.3473C212.16 35.4959 212.159 36.6446 212.159 37.7932C212.158 38.3461 212.159 38.899 212.159 39.4519C212.16 40.2233 212.159 40.9947 212.157 41.7661C212.158 41.9968 212.158 42.2275 212.159 42.4652C212.152 44.0424 212.152 44.0424 211.783 44.4117C211.279 44.4355 210.775 44.4395 210.271 44.4324C209.86 44.4279 209.86 44.4279 209.441 44.4233C209.124 44.4176 209.124 44.4176 208.8 44.4117C208.581 43.6461 208.362 42.8805 208.137 42.0917C207.976 42.2275 207.816 42.3634 207.65 42.5034C205.564 44.1804 203.904 44.8567 201.219 44.7224C198.742 44.3871 196.617 43.4486 195.066 41.4495C194.775 41.0058 194.491 40.5573 194.217 40.1031C194.019 39.8092 193.821 39.5152 193.616 39.2124C192.67 36.5719 192.545 33.465 193.554 30.8231C194.676 28.4567 196.372 26.6121 198.795 25.5617C201.375 24.7315 203.607 25.0828 206.073 26.0951C206.91 26.5703 207.471 27.1523 208.137 27.8402C208.15 27.4513 208.15 27.4513 208.162 27.0545C208.201 25.8871 208.241 24.7197 208.282 23.5524C208.295 23.1442 208.308 22.7359 208.322 22.3154C208.335 21.9276 208.349 21.5399 208.364 21.1405C208.376 20.7812 208.388 20.4219 208.4 20.0518C208.494 18.9117 208.494 18.9117 209.473 18.8477ZM197.78 30.5745C196.551 32.5056 196.373 34.4117 196.67 36.636C197.111 38.4517 198.039 39.8918 199.603 40.9317C201.429 41.8248 203.175 41.6248 205.071 41.056C206.841 40.0352 207.816 38.7396 208.469 36.7888C208.718 34.589 208.589 32.7455 207.474 30.8231C206.307 29.4762 205.354 28.6065 203.562 28.3918C200.946 28.3585 199.664 28.6907 197.78 30.5745Z" fill="#585858"/>
<path d="M166.709 26.5139C167.579 27.2597 167.579 27.2597 168.034 27.8397C168.144 27.0741 168.253 26.3085 168.366 25.5197C168.911 25.5107 169.457 25.5043 170.002 25.4989C170.458 25.4932 170.458 25.4932 170.923 25.4873C171.68 25.5197 171.68 25.5197 172.011 25.8511C172.044 26.4189 172.054 26.988 172.054 27.5568C172.055 27.9206 172.056 28.2845 172.057 28.6594C172.057 29.0553 172.056 29.4513 172.055 29.8593C172.056 30.2626 172.056 30.666 172.056 31.0816C172.057 31.9364 172.056 32.7912 172.055 33.646C172.053 34.9597 172.055 36.2733 172.057 37.587C172.057 38.4152 172.056 39.2433 172.055 40.0714C172.056 40.4674 172.057 40.8634 172.057 41.2714C172.056 41.8172 172.056 41.8172 172.054 42.374C172.054 42.6961 172.054 43.0182 172.053 43.35C172.011 44.0797 172.011 44.0797 171.68 44.4111C171.176 44.4349 170.672 44.4389 170.168 44.4318C169.894 44.4288 169.62 44.4258 169.338 44.4227C169.126 44.4189 168.915 44.415 168.697 44.4111C168.478 43.6455 168.26 42.8799 168.034 42.0911C167.87 42.2269 167.705 42.3628 167.536 42.5028C165.399 44.1979 163.526 44.9824 160.743 44.7425C157.958 44.0743 155.889 42.8851 154.222 40.522C152.766 38.032 152.341 35.1519 152.967 32.3411C153.831 29.5063 155.44 27.2866 158.051 25.8368C161.02 24.5593 163.916 25.0057 166.709 26.5139ZM158.091 29.8282C156.599 31.7604 156.275 33.7378 156.434 36.1254C156.828 38.1936 157.525 39.4287 159.179 40.7343C160.59 41.6325 162.113 41.6161 163.726 41.4282C165.467 40.866 166.743 40.0334 167.703 38.4454C168.602 36.0638 168.709 33.8025 167.744 31.4504C166.968 30.1437 165.738 29.1773 164.389 28.5025C161.945 28.2763 160.036 28.2484 158.091 29.8282Z" fill="#585858"/>
<path d="M151.131 20.5487C151.139 23.611 151.145 26.6734 151.149 29.7358C151.15 31.1577 151.153 32.5795 151.156 34.0014C151.16 35.3724 151.162 36.7434 151.163 38.1144C151.164 38.6387 151.165 39.1629 151.167 39.6871C151.169 40.4189 151.169 41.1506 151.169 41.8823C151.17 42.2996 151.171 42.7169 151.171 43.1469C151.131 44.0801 151.131 44.0801 150.8 44.4115C150.297 44.4353 149.792 44.4393 149.288 44.4322C148.877 44.4277 148.877 44.4277 148.458 44.4232C148.141 44.4174 148.141 44.4174 147.817 44.4115C147.557 43.0363 147.446 41.7425 147.453 40.3437C147.454 39.9988 147.455 39.6539 147.456 39.2985C147.459 38.8667 147.462 38.4349 147.465 37.9901C147.472 36.6093 147.479 35.2285 147.486 33.8058C143.767 33.8058 140.048 33.8058 136.217 33.8058C136.23 37.1722 136.23 37.1722 136.247 40.5385C136.248 40.9549 136.249 41.3712 136.25 41.8002C136.251 42.2289 136.253 42.6576 136.255 43.0993C136.217 44.0801 136.217 44.0801 135.886 44.4115C135.382 44.4353 134.878 44.4393 134.374 44.4322C133.963 44.4277 133.963 44.4277 133.544 44.4232C133.227 44.4174 133.227 44.4174 132.903 44.4115C132.852 41.3491 132.803 38.2868 132.756 35.2243C132.734 33.8025 132.712 32.3806 132.688 30.9588C132.665 29.5878 132.644 28.2168 132.624 26.8457C132.616 26.3215 132.607 25.7973 132.598 25.2731C132.585 24.5413 132.574 23.8096 132.564 23.0778C132.558 22.6605 132.551 22.2432 132.544 21.8133C132.571 20.8801 132.571 20.8801 132.903 20.5487C133.997 20.5487 135.09 20.5487 136.217 20.5487C136.327 23.8298 136.436 27.1109 136.549 30.4915C140.158 30.4915 143.767 30.4915 147.486 30.4915C147.473 27.4673 147.473 27.4673 147.456 24.4431C147.455 24.0679 147.454 23.6928 147.453 23.3062C147.452 22.9209 147.45 22.5356 147.448 22.1386C147.486 21.2115 147.486 21.2115 147.817 20.5487C149.054 20.2463 149.918 20.1987 151.131 20.5487Z" fill="#585858"/>
<path d="M94.4843 21.1657C94.7487 21.167 95.0132 21.1683 95.2857 21.1696C95.6823 21.1677 95.6823 21.1677 96.087 21.1657C98.0608 21.1691 98.0608 21.1691 98.4342 21.5425C98.4583 22.2671 98.462 22.9925 98.4549 23.7175C98.452 24.1144 98.449 24.5113 98.4459 24.9202C98.442 25.2274 98.4382 25.5346 98.4342 25.851C98.6696 25.8472 98.905 25.8433 99.1476 25.8394C99.4522 25.8364 99.7568 25.8334 100.071 25.8303C100.374 25.8265 100.678 25.8226 100.991 25.8187C101.749 25.851 101.749 25.851 102.08 26.1825C102.113 26.9552 102.123 27.729 102.121 28.5025C102.123 29.1382 102.123 29.1382 102.124 29.7868C102.08 30.8225 102.08 30.8225 101.749 31.1539C101.19 31.1778 100.63 31.1817 100.071 31.1746C99.766 31.1716 99.4614 31.1686 99.1476 31.1655C98.9122 31.1617 98.6768 31.1579 98.4342 31.1539C98.48 32.4728 98.5293 33.7916 98.5792 35.1103C98.5923 35.4869 98.6053 35.8635 98.6187 36.2516C98.6326 36.6094 98.6465 36.9672 98.6608 37.3358C98.6729 37.6673 98.6851 37.9988 98.6976 38.3404C98.6817 39.0952 98.6817 39.0952 99.0971 39.4396C99.5991 39.5165 100.104 39.5762 100.609 39.626C100.883 39.6538 101.157 39.6816 101.439 39.7102C101.756 39.7403 101.756 39.7403 102.08 39.771C102.089 40.5927 102.095 41.4143 102.101 42.236C102.103 42.4704 102.106 42.7047 102.109 42.9462C102.112 43.545 102.097 44.1439 102.08 44.7425C101.474 45.3484 100.554 45.1455 99.7392 45.1568C97.3562 45.1333 95.7602 44.8569 93.8564 43.3339C91.9105 40.8876 91.9649 38.514 91.9092 35.4832C91.8979 35.0668 91.8866 34.6505 91.8749 34.2216C91.8477 33.199 91.8247 32.1766 91.8057 31.1539C91.5391 31.1607 91.2725 31.1676 90.9978 31.1746C90.1485 31.1539 90.1485 31.1539 89.8171 30.8225C89.7842 30.0497 89.7741 29.2759 89.7757 28.5025C89.7748 28.0787 89.774 27.6548 89.7731 27.2182C89.8171 26.1825 89.8171 26.1825 90.1485 25.851C90.8112 25.8375 91.4744 25.8369 92.1371 25.851C92.1332 25.5439 92.1294 25.2367 92.1254 24.9202C92.1224 24.5233 92.1195 24.1264 92.1164 23.7175C92.1125 23.3214 92.1087 22.9254 92.1047 22.5173C92.1623 20.7823 92.9401 21.1683 94.4843 21.1657Z" fill="#2F3131"/>
<path d="M188.505 26.2835C190.115 27.505 191.154 29.1838 191.566 31.1539C191.595 31.5972 191.608 32.0416 191.609 32.4857C191.61 32.7433 191.611 33.0009 191.612 33.2664C191.611 33.5412 191.61 33.8161 191.61 34.0993C191.61 34.3835 191.61 34.6677 191.611 34.9606C191.611 35.5598 191.61 36.159 191.609 36.7582C191.607 37.679 191.609 38.5998 191.611 39.5206C191.611 40.1025 191.61 40.6845 191.61 41.2664C191.61 41.5433 191.611 41.8201 191.612 42.1054C191.604 44.0416 191.604 44.0416 191.234 44.4111C190.738 44.4435 190.24 44.4541 189.743 44.4525C189.473 44.4534 189.203 44.4542 188.925 44.4551C188.251 44.4111 188.251 44.4111 187.92 44.0797C187.879 43.1678 187.858 42.2629 187.85 41.3505C187.841 40.7852 187.831 40.2199 187.822 39.6546C187.808 38.7607 187.796 37.8669 187.787 36.973C187.778 36.1121 187.763 35.2514 187.747 34.3905C187.745 34.1247 187.744 33.8588 187.743 33.5848C187.703 31.7395 187.35 30.6115 186.035 29.2482C184.49 28.4132 183.055 28.4296 181.374 28.7097C180.146 29.2294 179.679 29.706 178.971 30.8225C178.552 32.0815 178.563 33.2831 178.535 34.5964C178.528 34.8672 178.521 35.138 178.514 35.4169C178.493 36.2814 178.473 37.1459 178.454 38.0104C178.439 38.5966 178.425 39.1829 178.41 39.7691C178.375 41.2059 178.341 42.6428 178.309 44.0797C177.23 44.6187 176.19 44.449 174.994 44.4111C174.663 44.0797 174.663 44.0797 174.623 43.3352C174.624 43.0062 174.625 42.6772 174.625 42.3383C174.625 41.9667 174.625 41.5952 174.625 41.2123C174.627 40.8081 174.629 40.4038 174.631 39.9873C174.631 39.5758 174.631 39.1643 174.632 38.7403C174.634 37.6446 174.636 36.5489 174.64 35.4532C174.644 34.3358 174.645 33.2184 174.647 32.101C174.65 29.9072 174.656 27.7134 174.663 25.5197C175.757 25.5197 176.85 25.5197 177.977 25.5197C178.196 26.0665 178.415 26.6134 178.64 27.1768C178.872 26.9717 179.105 26.7667 179.344 26.5554C182.108 24.5128 185.572 24.649 188.505 26.2835Z" fill="#585858"/>
<path d="M125.836 19.5088C126.207 19.5107 126.207 19.5107 126.585 19.5127C126.954 19.5108 126.954 19.5108 127.33 19.5088C129.173 19.5121 129.173 19.5121 129.92 19.8855C129.928 23.1208 129.934 26.356 129.937 29.5913C129.939 31.0934 129.941 32.5955 129.945 34.0976C129.949 35.5459 129.951 36.9943 129.951 38.4427C129.952 38.9965 129.953 39.5504 129.955 40.1042C129.957 40.8772 129.958 41.6502 129.958 42.4232C129.959 42.6545 129.96 42.8857 129.961 43.124C129.958 44.7049 129.958 44.7049 129.589 45.0741C128.646 45.1072 127.714 45.1201 126.771 45.1155C126.507 45.1168 126.242 45.1181 125.97 45.1194C123.996 45.1161 123.996 45.1161 123.623 44.7427C123.59 43.9681 123.578 43.2033 123.58 42.4285C123.579 42.1865 123.579 41.9446 123.578 41.6953C123.577 40.8917 123.578 40.0881 123.579 39.2845C123.579 38.7284 123.578 38.1724 123.578 37.6164C123.577 36.4495 123.578 35.2826 123.58 34.1158C123.582 32.6167 123.58 31.1176 123.578 29.6185C123.577 28.4699 123.578 27.3212 123.578 26.1726C123.579 25.6197 123.578 25.0668 123.578 24.5139C123.577 23.7425 123.578 22.9711 123.58 22.1997C123.579 21.969 123.579 21.7383 123.578 21.5006C123.587 19.4679 123.823 19.5124 125.836 19.5088Z" fill="#2F3131"/>
<path d="M226.034 26.5139C227.157 27.516 227.969 28.6955 228.354 30.1596C228.245 30.5971 228.136 31.0346 228.023 31.4853C227.038 31.4853 226.054 31.4853 225.04 31.4853C224.862 31.1162 224.685 30.7471 224.501 30.3668C223.975 29.4571 223.758 29.1891 222.803 28.6682C221.261 28.431 219.783 28.3907 218.411 29.2482C217.928 30.0945 217.87 30.5278 218.08 31.4853C219.829 32.8853 221.739 33.4026 223.865 34.0118C225.987 34.6645 227.106 35.5784 228.354 37.451C228.594 39.0717 228.529 40.403 227.816 41.8839C226.072 43.8111 224.191 44.6037 221.622 44.846C218.634 44.5928 216.446 43.7009 214.434 41.4282C213.694 40.1541 213.733 39.9236 214.103 38.4453C215.197 38.4453 216.29 38.4453 217.417 38.4453C217.561 38.7598 217.704 39.0742 217.852 39.3982C218.343 40.5003 218.343 40.5003 219.406 41.0968C220.345 41.2272 220.345 41.2272 221.374 41.221C221.891 41.2351 221.891 41.2351 222.418 41.2495C223.409 41.1624 223.409 41.1624 224.192 40.5504C224.82 39.7763 224.82 39.7763 224.626 38.6939C224.544 38.3931 224.462 38.0924 224.377 37.7825C224.155 37.7091 223.933 37.6357 223.704 37.5601C222.691 37.2235 221.68 36.8816 220.669 36.5396C220.32 36.4243 219.97 36.3089 219.61 36.1901C217.451 35.4545 215.776 34.8589 214.496 32.8732C213.951 31.4098 213.771 30.2825 214.394 28.8067C215.435 26.9544 216.647 25.9579 218.707 25.328C221.319 24.8055 223.784 25.0426 226.034 26.5139Z" fill="#585858"/>
<path d="M84.1053 25.8135C84.3535 25.8152 84.6017 25.8169 84.8574 25.8187C85.1255 25.8198 85.3936 25.8209 85.6698 25.822C85.9516 25.8247 86.2333 25.8275 86.5236 25.8304C86.8067 25.8319 87.0897 25.8334 87.3813 25.8349C88.0828 25.8388 88.7843 25.8448 89.4858 25.8511C89.4934 28.3085 89.4993 30.7659 89.5029 33.2233C89.5047 34.3643 89.507 35.5053 89.5108 36.6462C89.5151 37.9567 89.5167 39.2672 89.5181 40.5777C89.5198 40.9892 89.5216 41.4007 89.5233 41.8247C89.5234 42.392 89.5234 42.392 89.5234 42.9707C89.5241 43.3056 89.5249 43.6405 89.5256 43.9855C89.4858 44.7425 89.4858 44.7425 89.1543 45.074C88.212 45.1071 87.2795 45.12 86.3372 45.1154C86.0727 45.1167 85.8083 45.118 85.5358 45.1193C83.562 45.1159 83.562 45.1159 83.1886 44.7425C83.1559 44.1646 83.1462 43.5853 83.1457 43.0064C83.1447 42.6359 83.1437 42.2654 83.1426 41.8837C83.1432 41.4805 83.1439 41.0773 83.1446 40.6618C83.1443 40.2511 83.144 39.8404 83.1437 39.4173C83.1434 38.5468 83.1439 37.6765 83.1454 36.806C83.1473 35.6881 83.1462 34.5703 83.1442 33.4524C83.1428 32.3893 83.1438 31.3263 83.1446 30.2632C83.1439 29.86 83.1433 29.4568 83.1426 29.0413C83.1436 28.6709 83.1447 28.3004 83.1457 27.9186C83.146 27.5907 83.1463 27.2627 83.1465 26.9248C83.1972 26.0313 83.2089 25.8711 84.1053 25.8135Z" fill="#2F3131"/>
</svg>
