<svg width="434" height="434" viewBox="0 0 434 434" fill="none" xmlns="http://www.w3.org/2000/svg">
<path d="M275.272 96.8907C277.546 98.7507 279.197 100.742 280.653 103.292C280.822 103.581 280.822 103.581 280.995 103.877C283.473 108.439 284.094 114.49 282.679 119.495C281.316 123.32 279.368 126.363 276.603 129.332C276.848 129.386 276.848 129.386 277.099 129.441C281.832 130.508 286.132 132.127 290.491 134.251C290.836 134.418 290.836 134.418 291.188 134.589C294.165 136.062 296.575 137.961 299.011 140.207C299.566 140.713 300.145 141.188 300.726 141.665C308.668 148.704 312.883 160.218 313.601 170.564C314.078 180.107 312.761 189.18 309.587 198.194C309.504 198.435 309.421 198.676 309.335 198.924C305.103 211.121 298.155 222.452 289.912 232.335C289.478 232.871 289.044 233.408 288.61 233.944C287.569 235.218 286.49 236.45 285.38 237.664C285.023 238.058 284.668 238.453 284.326 238.86C282.643 240.844 280.786 242.661 278.945 244.497C278.358 245.082 277.773 245.669 277.189 246.255C273.585 249.861 273.585 249.861 271.684 251.431C271.493 251.59 271.302 251.75 271.105 251.914C270.504 252.413 269.901 252.908 269.297 253.402C267.54 254.84 267.54 254.84 265.797 256.295C264.139 257.693 262.452 259.029 260.709 260.318C259.936 260.893 259.175 261.48 258.416 262.073C256.806 263.329 255.163 264.499 253.453 265.617C252.592 266.184 251.749 266.77 250.906 267.362C247.197 269.935 243.435 272.464 239.514 274.704C239.329 274.812 239.143 274.919 238.952 275.03C237.99 275.565 237.518 275.735 236.385 275.735C237.32 273.472 239.881 271.923 241.776 270.476C242.576 269.86 243.36 269.228 244.143 268.592C244.402 268.382 244.66 268.172 244.926 267.956C245.651 267.358 245.651 267.358 246.28 266.688C246.801 266.187 246.801 266.187 247.38 266.187C247.496 265.909 247.496 265.909 247.615 265.626C247.959 265.03 247.959 265.03 248.827 264.74C248.91 264.573 248.994 264.406 249.08 264.234C249.52 263.354 250.146 262.823 250.852 262.136C252.873 260.165 254.814 258.202 256.57 255.984C257.276 255.12 258.027 254.306 258.791 253.492C260.288 251.886 261.623 250.187 262.938 248.43C263.405 247.811 263.885 247.202 264.363 246.592C265.995 244.503 267.502 242.338 268.983 240.141C269.348 239.6 269.714 239.061 270.081 238.523C274.832 231.513 279.074 224.223 282.639 216.541C282.939 215.904 283.251 215.275 283.569 214.647C290.212 201.466 295.838 183.276 291.116 168.658C289.944 165.256 288.292 162.381 285.861 159.712C285.68 159.504 285.5 159.297 285.313 159.083C280.702 154.084 273.484 152.481 266.953 152.139C257.118 151.76 247.309 153.278 238.121 156.819C237.65 156.992 237.65 156.992 237.169 157.168C231.217 159.379 225.373 162.112 220.183 165.788C219.249 166.411 218.943 166.425 217.868 166.367C217.787 166.195 217.706 166.023 217.623 165.846C215.784 162.044 213.346 158.871 210.635 155.662C210.407 155.392 210.18 155.122 209.945 154.844C206.091 150.428 201.408 146.626 196.457 143.51C196.168 143.327 195.878 143.144 195.579 142.956C194.795 142.468 194.007 141.986 193.216 141.509C192.859 141.293 192.503 141.076 192.148 140.858C188.778 138.787 185.305 137.037 181.701 135.408C181.323 135.236 181.323 135.236 180.937 135.061C177.837 133.664 174.72 132.441 171.477 131.417C171.117 131.303 171.117 131.303 170.75 131.187C170.538 131.122 170.327 131.056 170.109 130.989C169.549 130.779 169.549 130.779 168.681 130.2C168.681 129.914 168.681 129.627 168.681 129.332C180.44 128.81 192.527 130.955 203.691 134.54C203.944 134.621 204.197 134.702 204.457 134.785C208.636 136.14 212.858 137.709 216.626 139.99C217.448 140.449 217.794 140.615 218.754 140.629C219.848 140.24 220.879 139.776 221.919 139.26C225.813 137.35 229.755 135.828 233.872 134.486C234.333 134.334 234.794 134.182 235.256 134.03C236.127 133.743 236.999 133.456 237.872 133.171C238.741 132.887 239.608 132.596 240.473 132.302C241.572 131.935 242.678 131.631 243.8 131.339C245.191 130.976 246.577 130.6 247.959 130.2C247.773 130.049 247.588 129.898 247.397 129.742C245.526 128.15 244.226 126.559 243.04 124.414C242.803 123.992 242.803 123.992 242.561 123.561C240.853 120.354 240.289 117.305 240.328 113.69C240.324 113.374 240.321 113.057 240.317 112.731C240.325 110.614 240.641 108.772 241.304 106.764C241.385 106.516 241.466 106.268 241.549 106.013C243.434 100.489 248.043 96.4395 253.135 93.9369C260.465 90.526 268.987 92.1157 275.272 96.8907Z" fill="#0292D7"/>
<path d="M141.195 139.17C141.957 139.711 142.275 140.079 142.552 140.971C142.664 141.976 142.461 142.724 142.225 143.709C141.101 149.209 141.174 156.034 142.641 161.448C142.691 161.636 142.741 161.824 142.792 162.018C144.92 169.916 149.285 177.41 154.793 183.438C154.984 183.533 155.175 183.629 155.372 183.727C154.961 183.124 154.549 182.522 154.138 181.92C153.789 181.409 153.44 180.899 153.092 180.388C152.259 179.167 151.417 177.957 150.544 176.765C147.25 172.048 142.93 165.043 143.509 159.134C144.463 154.093 146.877 149.782 150.774 146.462C151.65 145.905 152.339 145.988 153.347 146.114C154.052 146.548 154.052 146.548 154.504 147.271C154.823 149.186 154.166 150.692 153.459 152.464C152.38 155.432 152.029 158.359 152.045 161.503C152.046 161.878 152.048 162.253 152.049 162.64C152.14 169.438 154.059 175.935 156.554 182.209C156.979 183.294 157.21 184.316 157.397 185.463C158.42 188.244 162.102 190.646 164.341 192.407C164.651 192.656 164.96 192.905 165.269 193.154C176.405 202.64 176.405 202.64 189.224 207.742C189.108 207.586 188.992 207.431 188.873 207.271C184.519 201.27 180.796 193.614 181.905 186.006C182.404 183.133 183.4 180.353 185.793 178.527C186.781 177.981 187.511 177.922 188.645 177.94C189.754 178.334 190.022 178.666 190.544 179.724C190.98 180.788 191.147 181.827 191.304 182.967C192.322 189.097 196.386 193.819 200.392 198.315C200.89 198.877 201.377 199.449 201.864 200.02C203.079 201.407 204.404 202.687 205.716 203.98C206.559 204.82 207.398 205.664 208.235 206.51C208.631 206.908 209.027 207.307 209.423 207.705C209.618 207.903 209.813 208.1 210.014 208.303C211.163 209.458 212.341 210.559 213.575 211.623C214.295 212.244 214.996 212.886 215.698 213.528C216.6 214.352 217.506 215.169 218.429 215.97C227.194 223.626 233.629 232.743 234.607 244.715C235.303 255.317 232.413 265.572 227.416 274.867C227.302 275.082 227.188 275.298 227.07 275.519C225.62 278.243 224.123 280.829 222.208 283.258C221.922 283.162 221.635 283.067 221.34 282.968C221.141 282.421 221.141 282.421 221.01 281.698C220.958 281.43 220.906 281.162 220.853 280.886C220.799 280.594 220.745 280.303 220.689 280.003C219.041 271.897 215.983 264.94 210.213 258.93C209.574 258.259 209.196 257.821 208.899 256.928C208.514 256.733 208.128 256.541 207.741 256.35C207.289 255.923 206.85 255.481 206.421 255.03C205.182 253.764 203.89 252.635 202.507 251.53C201.758 250.927 201.024 250.31 200.294 249.684C198.768 248.377 197.217 247.124 195.616 245.909C193.909 244.609 192.251 243.25 190.589 241.892C189.736 241.195 188.876 240.506 188.012 239.821C186.744 238.81 185.506 237.765 184.271 236.713C183.292 235.88 182.303 235.061 181.304 234.252C179.651 232.907 178.046 231.511 176.44 230.111C175.742 229.502 175.04 228.899 174.331 228.302C172.194 226.499 170.136 224.629 168.113 222.698C167.183 221.812 166.248 220.942 165.272 220.106C163.831 218.856 162.49 217.507 161.145 216.157C160.707 215.717 160.268 215.279 159.828 214.841C158.281 213.296 156.793 211.718 155.372 210.056C154.963 209.609 154.553 209.163 154.142 208.718C152.671 207.087 151.331 205.365 149.989 203.628C149.604 203.136 149.213 202.65 148.818 202.166C138.572 189.54 130.673 173.373 132.359 156.75C132.952 151.954 134.485 142.545 138.536 139.332C139.472 139.092 140.233 139.067 141.195 139.17ZM155.372 183.727C155.563 184.109 155.754 184.491 155.951 184.884C155.951 184.598 155.951 184.311 155.951 184.016C155.76 183.921 155.569 183.825 155.372 183.727Z" fill="#2F3131"/>
<path d="M132.352 288.538C133.466 289.328 134.085 290.023 134.384 291.389C134.65 293.151 134.441 294.345 133.491 295.879C132.26 297.111 130.943 297.784 129.187 297.851C127.674 297.77 126.229 297.484 125.105 296.412C124.757 295.998 124.437 295.561 124.124 295.12C123.53 296.011 123.221 296.795 122.859 297.802C122.792 297.989 122.724 298.177 122.654 298.37C122.425 299.004 122.199 299.639 121.972 300.274C121.809 300.728 121.646 301.182 121.482 301.636C119.716 306.562 117.984 311.501 116.254 316.44C115.708 317.999 115.159 319.558 114.609 321.116C114.39 321.734 114.173 322.352 113.955 322.971C113.639 323.87 113.319 324.767 112.999 325.665C112.904 325.937 112.809 326.209 112.71 326.489C112.622 326.737 112.533 326.984 112.441 327.238C112.364 327.455 112.287 327.672 112.208 327.896C111.972 328.393 111.972 328.393 111.393 328.683C110.598 328.711 109.81 328.723 109.015 328.721C108.78 328.721 108.544 328.722 108.302 328.722C107.804 328.722 107.306 328.722 106.808 328.72C106.044 328.719 105.28 328.72 104.516 328.722C104.033 328.722 103.549 328.722 103.066 328.721C102.837 328.722 102.607 328.722 102.371 328.723C100.754 328.716 100.754 328.716 100.109 328.393C99.8751 327.892 99.8751 327.892 99.6436 327.226C99.555 326.975 99.4665 326.724 99.3753 326.465C99.28 326.188 99.1846 325.911 99.0864 325.625C98.985 325.336 98.8835 325.046 98.7789 324.748C98.4429 323.788 98.1097 322.826 97.7765 321.865C97.5436 321.198 97.3105 320.531 97.0771 319.865C96.593 318.481 96.1098 317.097 95.6272 315.713C94.5106 312.516 93.3761 309.324 92.243 306.133C91.67 304.518 91.0975 302.902 90.5269 301.287C90.1521 300.225 89.7731 299.166 89.3919 298.107C89.2042 297.581 89.0164 297.055 88.8287 296.529C88.6968 296.167 88.6968 296.167 88.5623 295.797C88.4826 295.572 88.4029 295.348 88.3208 295.117C88.2504 294.921 88.1799 294.726 88.1073 294.524C87.9573 293.963 87.9573 293.963 87.9573 292.805C89.1256 292.749 90.294 292.698 91.4627 292.65C91.8598 292.633 92.2569 292.615 92.6539 292.596C93.2262 292.569 93.7987 292.546 94.3712 292.523C94.7152 292.508 95.0591 292.492 95.4135 292.477C96.3963 292.518 96.9638 292.566 97.7946 293.095C98.133 293.772 98.3587 294.347 98.5733 295.063C98.639 295.266 98.7046 295.468 98.7722 295.676C98.9881 296.345 99.196 297.016 99.404 297.688C99.5534 298.155 99.7033 298.622 99.8538 299.089C100.168 300.066 100.48 301.043 100.79 302.021C101.255 303.481 101.736 304.935 102.224 306.387C102.302 306.619 102.38 306.851 102.46 307.09C102.614 307.549 102.768 308.007 102.922 308.466C103.953 311.529 104.963 314.594 105.896 317.688C106.509 316.768 106.829 315.872 107.169 314.833C107.269 314.532 107.269 314.532 107.371 314.224C107.592 313.559 107.811 312.893 108.03 312.227C108.184 311.762 108.337 311.298 108.491 310.833C109.307 308.37 110.111 305.903 110.907 303.434C110.985 303.193 111.063 302.953 111.143 302.705C111.516 301.548 111.888 300.39 112.258 299.232C112.395 298.807 112.532 298.382 112.668 297.957C112.727 297.771 112.786 297.584 112.847 297.393C113.353 295.823 113.959 294.349 114.576 292.805C117.536 292.805 120.496 292.805 123.545 292.805C123.641 292.137 123.736 291.469 123.835 290.78C124.523 289.3 125.489 288.472 127.017 287.887C128.838 287.329 130.716 287.576 132.352 288.538Z" fill="#2F3131"/>
<path d="M172.193 301.912C172.732 302.353 172.732 302.353 173.021 302.642C173.063 302.266 173.105 301.89 173.148 301.503C173.274 300.364 173.274 300.364 173.6 300.038C174.238 300.009 174.878 300 175.517 300C175.708 300 175.9 299.999 176.097 299.999C176.503 299.999 176.909 299.999 177.314 300.001C177.937 300.002 178.56 300.001 179.183 299.999C179.577 299.999 179.97 299.999 180.363 300C180.904 300 180.904 300 181.455 300.001C182.28 300.038 182.28 300.038 182.569 300.328C182.598 301.198 182.609 302.062 182.607 302.932C182.607 303.342 182.607 303.342 182.608 303.76C182.61 304.669 182.609 305.577 182.608 306.485C182.608 307.113 182.608 307.741 182.609 308.369C182.609 309.688 182.608 311.006 182.607 312.324C182.605 314.018 182.606 315.712 182.608 317.406C182.609 318.704 182.609 320.002 182.608 321.299C182.608 321.924 182.608 322.549 182.609 323.174C182.609 324.045 182.608 324.917 182.607 325.788C182.607 326.049 182.608 326.31 182.609 326.579C182.602 328.36 182.602 328.36 182.28 328.682C181.642 328.711 181.002 328.72 180.363 328.721C180.172 328.721 179.98 328.721 179.783 328.722C179.377 328.722 178.971 328.721 178.566 328.72C177.943 328.718 177.32 328.72 176.697 328.722C176.303 328.722 175.91 328.721 175.517 328.721C175.157 328.72 174.796 328.72 174.425 328.72C173.6 328.682 173.6 328.682 173.311 328.393C173.179 327.625 173.107 326.853 173.021 326.078C172.816 326.246 172.816 326.246 172.607 326.417C169.936 328.521 167.22 329.579 163.763 329.261C160.277 328.692 157.261 327.18 155.083 324.342C152.34 319.827 151.44 314.925 152.571 309.733C153.525 306.214 155.382 303.118 158.555 301.196C158.739 301.083 158.923 300.971 159.113 300.855C163.341 298.52 168.403 299.047 172.193 301.912ZM163.112 309.677C161.59 311.596 161.537 313.572 161.737 315.952C162.091 317.611 162.846 318.824 164.052 320.002C165.647 320.94 167.162 321.125 168.971 320.87C170.497 320.383 171.607 319.659 172.443 318.266C173.437 316.098 173.731 313.83 172.967 311.539C172.348 310.108 171.523 309.104 170.255 308.176C167.581 307.301 165.05 307.581 163.112 309.677Z" fill="#2F3131"/>
<path d="M313.348 289.912C314.162 289.905 314.975 289.899 315.789 289.894C316.021 289.892 316.254 289.89 316.493 289.887C317.084 289.885 317.676 289.897 318.267 289.912C318.751 290.397 318.592 290.986 318.593 291.652C318.594 292.123 318.594 292.123 318.595 292.603C318.594 293.124 318.594 293.124 318.593 293.656C318.594 294.202 318.594 294.202 318.595 294.758C318.596 295.758 318.596 296.758 318.595 297.758C318.594 298.803 318.595 299.847 318.595 300.892C318.596 302.646 318.595 304.4 318.594 306.154C318.592 308.185 318.593 310.216 318.594 312.247C318.596 313.988 318.596 315.728 318.595 317.469C318.595 318.51 318.594 319.551 318.595 320.592C318.596 321.752 318.595 322.911 318.593 324.071C318.594 324.419 318.595 324.766 318.595 325.124C318.594 325.438 318.594 325.752 318.593 326.076C318.593 326.488 318.593 326.488 318.592 326.908C318.556 327.526 318.556 327.526 318.267 327.815C317.438 327.836 316.617 327.842 315.789 327.833C315.556 327.832 315.323 327.831 315.082 327.829C314.504 327.826 313.926 327.821 313.348 327.815C312.996 327.111 312.966 326.537 312.896 325.754C312.872 325.49 312.847 325.227 312.822 324.956C312.805 324.754 312.787 324.551 312.769 324.343C312.636 324.473 312.502 324.602 312.365 324.735C309.62 327.28 306.566 328.555 302.813 328.445C299.12 328.194 295.839 326.884 293.299 324.098C292.417 322.986 291.702 321.852 291.069 320.582C290.949 320.343 290.829 320.105 290.705 319.86C289.19 316.21 289.329 311.153 290.701 307.465C291.285 306.242 291.981 305.163 292.805 304.09C293.056 303.714 293.056 303.714 293.312 303.33C295.548 300.969 298.711 299.313 301.974 299.102C306.011 298.997 308.987 299.763 312.191 302.354C312.382 302.545 312.573 302.736 312.769 302.932C313.088 301.656 313.091 300.414 313.077 299.107C313.076 298.88 313.075 298.654 313.073 298.421C313.07 297.7 313.065 296.98 313.059 296.26C313.051 295.31 313.045 294.36 313.041 293.41C313.037 293.084 313.037 293.084 313.033 292.752C313.029 291.764 313.035 290.857 313.348 289.912ZM297.145 306.983C295.238 309.958 294.77 312.93 295.446 316.368C296.094 318.985 297.458 321.13 299.749 322.607C301.965 323.777 304.758 323.888 307.161 323.285C309.614 322.301 311.411 320.595 312.489 318.19C313.509 315.312 313.74 312.202 312.534 309.352C312.33 308.945 312.119 308.541 311.901 308.14C311.746 307.842 311.591 307.544 311.431 307.236C310.008 305.513 308.056 304.147 305.825 303.8C302.366 303.49 299.459 304.278 297.145 306.983Z" fill="#585858"/>
<path d="M201.503 291.883C201.703 291.879 201.904 291.876 202.111 291.872C202.638 291.871 203.165 291.902 203.691 291.937C204.269 292.516 204.269 292.516 204.339 293.157C204.337 293.556 204.337 293.556 204.335 293.963C204.335 294.268 204.335 294.574 204.335 294.888C204.33 295.371 204.33 295.371 204.326 295.864C204.325 296.159 204.325 296.454 204.324 296.758C204.321 297.864 204.313 298.969 204.306 300.075C204.294 302.545 204.282 305.016 204.269 307.561C209.903 307.561 215.536 307.561 221.34 307.561C221.317 302.744 221.317 302.744 221.288 297.927C221.286 297.324 221.285 296.721 221.283 296.118C221.281 295.804 221.278 295.49 221.275 295.166C221.274 294.717 221.274 294.717 221.274 294.258C221.273 293.998 221.272 293.738 221.27 293.47C221.34 292.805 221.34 292.805 221.919 291.937C222.669 291.857 223.34 291.829 224.089 291.847C224.288 291.846 224.488 291.845 224.693 291.844C226.181 291.86 226.181 291.86 226.837 292.516C226.909 293.128 226.909 293.128 226.909 293.9C226.91 294.192 226.911 294.484 226.913 294.785C226.911 295.107 226.909 295.428 226.908 295.76C226.908 296.097 226.909 296.435 226.909 296.783C226.91 297.711 226.908 298.639 226.906 299.567C226.903 300.536 226.904 301.506 226.904 302.476C226.903 304.104 226.901 305.733 226.897 307.362C226.892 309.246 226.891 311.131 226.891 313.015C226.891 314.826 226.89 316.637 226.887 318.448C226.886 319.219 226.886 319.991 226.886 320.762C226.885 321.839 226.882 322.916 226.879 323.992C226.88 324.314 226.88 324.636 226.88 324.967C226.879 325.259 226.877 325.551 226.876 325.852C226.876 326.107 226.875 326.362 226.875 326.624C226.837 327.236 226.837 327.236 226.548 327.815C224.925 327.815 223.302 327.815 221.629 327.815C221.264 327.083 221.305 326.581 221.307 325.763C221.307 325.451 221.307 325.14 221.307 324.819C221.309 324.491 221.31 324.163 221.312 323.825C221.312 323.524 221.312 323.223 221.313 322.913C221.314 321.786 221.318 320.659 221.322 319.532C221.328 317.014 221.334 314.496 221.34 311.901C215.707 311.901 210.073 311.901 204.269 311.901C204.281 317.03 204.281 317.03 204.295 322.159C204.296 322.799 204.297 323.439 204.298 324.079C204.299 324.415 204.301 324.751 204.302 325.097C204.302 325.414 204.302 325.731 204.302 326.058C204.303 326.335 204.303 326.612 204.304 326.897C204.269 327.525 204.269 327.525 203.98 327.815C203.151 327.836 202.331 327.841 201.503 327.833C201.067 327.829 200.632 327.826 200.196 327.823C199.634 327.819 199.634 327.819 199.061 327.815C198.713 321.806 198.727 315.799 198.734 309.783C198.736 308.345 198.735 306.908 198.733 305.47C198.732 304.349 198.733 303.227 198.733 302.106C198.733 301.575 198.733 301.045 198.733 300.515C198.726 294.42 198.726 294.42 199.061 292.227C199.635 291.653 200.721 291.884 201.503 291.883Z" fill="#585858"/>
<path d="M248.827 300.328C249.655 300.851 250.397 301.429 251.141 302.064C251.525 302.355 251.911 302.645 252.299 302.932C252.32 302.628 252.32 302.628 252.342 302.319C252.363 302.056 252.385 301.792 252.407 301.521C252.427 301.259 252.447 300.997 252.468 300.728C252.588 300.038 252.588 300.038 253.167 299.46C254.079 299.383 254.079 299.383 255.174 299.387C255.535 299.386 255.895 299.384 256.267 299.383C257.217 299.46 257.217 299.46 258.085 300.038C258.17 300.919 258.198 301.741 258.188 302.623C258.189 302.89 258.19 303.158 258.19 303.434C258.191 304.322 258.186 305.209 258.18 306.097C258.179 306.712 258.179 307.327 258.179 307.942C258.177 309.231 258.173 310.52 258.167 311.81C258.158 313.466 258.155 315.123 258.154 316.78C258.153 318.049 258.15 319.319 258.147 320.588C258.145 321.199 258.144 321.811 258.142 322.422C258.14 323.274 258.137 324.126 258.132 324.978C258.132 325.233 258.131 325.488 258.131 325.751C258.118 327.492 258.118 327.492 257.796 327.814C256.973 327.843 256.159 327.854 255.337 327.85C254.99 327.852 254.99 327.852 254.637 327.854C252.914 327.851 252.914 327.851 252.588 327.525C252.52 326.99 252.468 326.453 252.425 325.916C252.401 325.623 252.377 325.33 252.352 325.028C252.334 324.802 252.317 324.576 252.299 324.342C252.175 324.468 252.052 324.594 251.925 324.724C249.181 327.338 245.942 328.505 242.19 328.454C238.467 328.198 235.443 326.867 232.879 324.148C229.897 320.46 228.845 316.264 229.224 311.587C229.855 307.659 231.49 304.194 234.6 301.639C238.681 298.761 244.29 298.06 248.827 300.328ZM236.789 306.729C234.848 309.339 234.323 312.49 234.774 315.672C235.25 318.186 236.107 320.274 238.128 321.928C240.686 323.614 243.402 323.815 246.394 323.36C248.494 322.787 250.166 321.366 251.327 319.548C252.788 316.734 253.05 313.491 252.39 310.393C251.404 307.471 249.998 305.823 247.26 304.416C243.687 302.856 239.375 303.81 236.789 306.729Z" fill="#585858"/>
<path d="M137.723 293.094C138.995 293.087 140.267 293.082 141.539 293.078C141.972 293.077 142.405 293.075 142.838 293.073C143.459 293.069 144.08 293.067 144.702 293.066C145.263 293.064 145.263 293.064 145.836 293.062C146.692 293.094 146.692 293.094 146.981 293.384C147.006 293.878 147.012 294.373 147.01 294.868C147.009 295.167 147.008 295.466 147.007 295.775C147.003 296.247 147.003 296.247 146.999 296.729C146.998 297.045 146.997 297.361 146.995 297.687C146.992 298.471 146.987 299.255 146.981 300.038C147.229 300.036 147.229 300.036 147.481 300.034C148.225 300.028 148.968 300.024 149.712 300.02C149.972 300.018 150.231 300.015 150.499 300.013C150.746 300.012 150.993 300.011 151.248 300.01C151.477 300.009 151.705 300.007 151.941 300.006C152.479 300.038 152.479 300.038 152.768 300.328C152.841 301.477 152.822 302.63 152.822 303.782C152.826 304.107 152.829 304.432 152.833 304.767C152.833 305.077 152.834 305.387 152.835 305.706C152.836 305.992 152.837 306.278 152.838 306.573C152.768 307.272 152.768 307.272 152.189 307.85C151.646 307.916 151.646 307.916 150.994 307.907C150.76 307.905 150.527 307.903 150.287 307.901C149.922 307.894 149.922 307.894 149.549 307.887C149.18 307.883 149.18 307.883 148.804 307.879C148.197 307.872 147.589 307.861 146.981 307.85C147.015 309.529 147.051 311.208 147.089 312.887C147.102 313.458 147.114 314.03 147.125 314.601C147.142 315.421 147.16 316.241 147.179 317.062C147.184 317.318 147.189 317.575 147.194 317.839C147.187 319.105 147.187 319.105 147.56 320.292C148.278 320.367 148.974 320.414 149.694 320.436C151.783 320.503 151.783 320.503 152.768 321.16C152.871 321.885 152.871 321.885 152.863 322.788C152.861 323.112 152.86 323.435 152.858 323.768C152.852 324.107 152.846 324.445 152.84 324.794C152.839 325.134 152.837 325.474 152.836 325.825C152.812 328.349 152.812 328.349 152.479 328.682C148.288 329.034 143.732 329.216 140.309 326.458C138.645 324.822 137.807 322.808 137.688 320.48C137.689 320.131 137.689 320.131 137.69 319.774C137.69 319.507 137.69 319.241 137.69 318.967C137.691 318.683 137.693 318.399 137.694 318.107C137.695 317.814 137.695 317.52 137.696 317.218C137.697 316.284 137.701 315.349 137.705 314.415C137.706 313.78 137.707 313.145 137.708 312.511C137.712 310.957 137.717 309.404 137.723 307.85C136.672 307.85 135.622 307.85 134.54 307.85C134.328 306.791 134.214 305.995 134.212 304.943C134.212 304.675 134.211 304.407 134.211 304.131C134.212 303.854 134.213 303.578 134.214 303.293C134.213 303.013 134.212 302.732 134.211 302.442C134.211 302.176 134.212 301.909 134.212 301.634C134.213 301.39 134.213 301.147 134.213 300.895C134.251 300.328 134.251 300.328 134.54 300.038C135.076 300.017 135.613 300.014 136.149 300.02C136.442 300.023 136.735 300.026 137.037 300.028C137.376 300.033 137.376 300.033 137.723 300.038C137.698 299.658 137.674 299.278 137.649 298.887C137.619 298.385 137.59 297.882 137.56 297.38C137.544 297.13 137.527 296.88 137.511 296.622C137.497 296.379 137.483 296.136 137.468 295.885C137.455 295.662 137.441 295.439 137.427 295.21C137.434 294.473 137.558 293.811 137.723 293.094Z" fill="#2F3131"/>
<path d="M185.463 290.78C186.735 290.773 188.007 290.768 189.279 290.764C189.712 290.763 190.145 290.761 190.578 290.758C191.199 290.755 191.82 290.753 192.442 290.752C193.003 290.749 193.003 290.749 193.576 290.747C194.432 290.78 194.432 290.78 194.721 291.069C194.749 291.553 194.757 292.037 194.756 292.521C194.757 292.835 194.757 293.15 194.757 293.474C194.756 293.996 194.756 293.996 194.754 294.528C194.754 294.892 194.754 295.256 194.754 295.632C194.754 296.633 194.753 297.634 194.751 298.635C194.749 299.681 194.749 300.726 194.748 301.771C194.747 303.752 194.745 305.733 194.742 307.714C194.739 309.968 194.737 312.222 194.736 314.477C194.733 319.116 194.728 323.754 194.721 328.393C193.876 328.816 193.13 328.715 192.187 328.711C191.9 328.71 191.9 328.71 191.606 328.71C190.993 328.708 190.38 328.704 189.766 328.701C189.351 328.699 188.935 328.698 188.52 328.697C187.501 328.694 186.482 328.689 185.463 328.683C185.099 327.955 185.137 327.458 185.137 326.643C185.136 326.334 185.135 326.025 185.134 325.706C185.135 325.366 185.135 325.025 185.136 324.674C185.135 324.317 185.135 323.959 185.134 323.591C185.133 322.609 185.134 321.627 185.134 320.644C185.135 319.618 185.135 318.591 185.134 317.565C185.134 315.841 185.134 314.117 185.136 312.393C185.137 310.398 185.137 308.403 185.135 306.408C185.134 304.697 185.134 302.986 185.134 301.275C185.135 300.253 185.135 299.23 185.134 298.207C185.133 297.068 185.134 295.928 185.136 294.788C185.135 294.448 185.135 294.107 185.134 293.756C185.135 293.447 185.136 293.138 185.137 292.819C185.137 292.55 185.137 292.28 185.137 292.002C185.173 291.359 185.173 291.359 185.463 290.78Z" fill="#2F3131"/>
<path d="M283.518 301.281C286.058 303.348 287.35 305.992 287.725 309.248C287.768 310.423 287.769 311.59 287.749 312.766C287.747 313.194 287.745 313.622 287.745 314.051C287.741 315.163 287.728 316.275 287.714 317.388C287.703 318.302 287.699 319.215 287.696 320.129C287.692 321.219 287.684 322.309 287.676 323.399C287.675 323.607 287.674 323.815 287.672 324.029C287.667 324.612 287.66 325.195 287.653 325.777C287.649 326.109 287.646 326.44 287.642 326.782C287.597 327.526 287.597 327.526 287.308 327.815C286.48 327.836 285.659 327.842 284.831 327.833C284.597 327.832 284.364 327.83 284.124 327.829C283.546 327.826 282.967 327.82 282.389 327.815C282.387 327.603 282.385 327.391 282.382 327.173C282.36 325.169 282.334 323.164 282.306 321.159C282.292 320.129 282.278 319.099 282.267 318.068C282.254 316.881 282.237 315.694 282.22 314.507C282.216 314.14 282.213 313.774 282.21 313.397C282.163 310.589 282.072 307.708 280.075 305.536C277.976 303.895 275.702 303.819 273.131 304.09C271.364 304.385 270.396 305.241 269.237 306.57C267.798 308.833 267.792 310.965 267.785 313.58C267.778 314.16 267.771 314.741 267.764 315.321C267.755 316.128 267.751 316.936 267.746 317.743C267.737 319.161 267.722 320.58 267.706 321.999C267.698 322.753 267.692 323.507 267.688 324.261C267.683 324.771 267.683 324.771 267.679 325.291C267.677 325.591 267.675 325.89 267.673 326.199C267.633 326.947 267.633 326.947 267.344 327.815C266.53 327.823 265.717 327.828 264.903 327.833C264.671 327.835 264.438 327.838 264.199 327.84C263.608 327.843 263.016 327.83 262.425 327.815C261.876 327.265 262.101 326.458 262.1 325.727C262.102 325.339 262.102 325.339 262.103 324.943C262.103 324.672 262.103 324.401 262.103 324.122C262.103 323.222 262.105 322.321 262.108 321.421C262.108 320.799 262.109 320.177 262.109 319.554C262.11 317.913 262.113 316.271 262.116 314.63C262.119 312.956 262.12 311.283 262.122 309.609C262.125 306.322 262.13 303.036 262.136 299.75C263.283 299.581 264.393 299.42 265.554 299.424C265.879 299.423 265.879 299.423 266.21 299.422C266.765 299.46 266.765 299.46 267.344 299.75C267.464 300.347 267.464 300.347 267.525 301.07C267.546 301.309 267.568 301.548 267.59 301.794C267.605 301.979 267.619 302.163 267.633 302.354C267.833 302.197 268.032 302.04 268.238 301.878C272.731 298.457 278.745 297.821 283.518 301.281Z" fill="#585858"/>
<path d="M332.1 299.081C332.33 299.082 332.56 299.083 332.796 299.085C335.782 299.144 338.335 299.929 340.53 302.023C341.985 303.597 342.901 305.059 342.914 307.254C342.887 307.836 342.887 307.836 342.86 308.43C341.237 308.43 339.614 308.43 337.941 308.43C337.786 308.03 337.631 307.63 337.471 307.218C336.902 305.966 336.309 305.005 335.048 304.379C332.661 303.608 330.679 303.746 328.411 304.759C327.669 305.366 327.453 305.76 327.236 306.694C327.259 307.788 327.434 308.306 328.086 309.189C329.895 310.592 332.16 311.144 334.339 311.753C337.606 312.67 340.703 313.572 342.6 316.607C343.546 318.437 343.532 320.056 343.149 322.028C342.399 324.36 341.232 325.779 339.075 326.927C335.509 328.739 331.954 328.718 328.104 327.815C325.309 326.785 323.01 325.054 321.739 322.318C321.003 320.029 321.003 320.029 321.449 319.135C324.913 318.788 324.913 318.788 326.368 319.135C327.107 319.82 327.395 320.377 327.756 321.311C328.306 322.444 329.217 322.749 330.328 323.24C332.552 323.786 334.435 323.583 336.495 322.607C337.445 321.76 337.641 321.333 337.724 320.021C337.758 319.13 337.758 319.13 337.274 318.412C335.333 316.694 332.54 316.23 330.11 315.586C327.213 314.784 324.128 313.571 322.516 310.871C321.658 309.124 321.51 307.469 321.739 305.536C322.541 303.26 324.24 301.357 326.368 300.238C328.241 299.346 330.053 299.066 332.1 299.081Z" fill="#585858"/>
<path d="M124.413 300.039C125.685 300.032 126.957 300.026 128.23 300.023C128.663 300.021 129.096 300.019 129.529 300.017C130.15 300.013 130.771 300.012 131.392 300.01C131.954 300.008 131.954 300.008 132.526 300.006C133.383 300.039 133.383 300.039 133.672 300.328C133.701 301.198 133.711 302.062 133.709 302.933C133.71 303.206 133.71 303.479 133.711 303.761C133.712 304.669 133.711 305.577 133.71 306.485C133.711 307.114 133.711 307.742 133.711 308.37C133.712 309.688 133.711 311.006 133.71 312.325C133.708 314.019 133.709 315.713 133.711 317.407C133.712 318.704 133.711 320.002 133.711 321.3C133.711 321.924 133.711 322.549 133.711 323.174C133.712 324.046 133.711 324.917 133.709 325.789C133.71 326.05 133.711 326.311 133.711 326.58C133.705 328.36 133.705 328.36 133.383 328.683C132.744 328.712 132.105 328.721 131.466 328.721C131.274 328.721 131.083 328.722 130.885 328.722C130.48 328.722 130.074 328.722 129.668 328.72C129.045 328.719 128.422 328.72 127.799 328.722C127.406 328.722 127.013 328.722 126.619 328.721C126.259 328.721 125.899 328.72 125.528 328.72C124.703 328.683 124.703 328.683 124.413 328.393C124.386 327.513 124.377 326.638 124.38 325.758C124.38 325.481 124.38 325.204 124.38 324.919C124.381 324 124.383 323.082 124.385 322.163C124.386 321.527 124.386 320.892 124.386 320.257C124.387 318.581 124.39 316.905 124.393 315.229C124.396 313.521 124.398 311.812 124.399 310.104C124.402 306.749 124.407 303.394 124.413 300.039Z" fill="#2F3131"/>
<path d="M275.272 96.89C277.546 98.75 279.197 100.741 280.653 103.292C280.766 103.484 280.879 103.677 280.995 103.876C283.473 108.438 284.094 114.489 282.679 119.494C281.316 123.319 279.368 126.362 276.603 129.332C276.848 129.385 276.848 129.385 277.099 129.44C281.832 130.507 286.132 132.127 290.491 134.25C290.836 134.418 290.836 134.418 291.188 134.588C294.165 136.061 296.575 137.96 299.01 140.206C299.566 140.712 300.145 141.187 300.726 141.664C308.668 148.703 312.883 160.217 313.601 170.563C314.078 180.106 312.761 189.179 309.587 198.193C309.504 198.434 309.421 198.675 309.335 198.924C306.738 206.408 303.106 214.429 298.303 220.761C298.207 220.761 298.112 220.761 298.013 220.761C298.013 220.283 298.013 219.806 298.013 219.314C298.204 219.314 298.395 219.314 298.592 219.314C298.592 219.123 298.592 218.932 298.592 218.735C298.783 218.735 298.974 218.735 299.171 218.735C299.171 218.354 299.171 217.972 299.171 217.578C299.362 217.578 299.553 217.578 299.749 217.578C299.749 217.196 299.749 216.814 299.749 216.421C300.036 216.421 300.322 216.421 300.617 216.421C300.713 215.848 300.808 215.275 300.907 214.685C301.098 214.685 301.289 214.685 301.485 214.685C301.485 214.303 301.485 213.921 301.485 213.527C301.676 213.527 301.867 213.527 302.064 213.527C302.064 213.337 302.064 213.146 302.064 212.949C302.255 212.949 302.446 212.949 302.643 212.949C302.667 212.752 302.69 212.555 302.715 212.352C302.909 211.593 303.118 211.132 303.511 210.471C303.962 209.696 304.24 209.184 304.379 208.319C304.57 208.319 304.761 208.319 304.957 208.319C305.148 207.365 305.339 206.41 305.536 205.426C305.727 205.426 305.918 205.426 306.115 205.426C306.115 204.853 306.115 204.28 306.115 203.69C306.306 203.69 306.497 203.69 306.693 203.69C306.693 203.117 306.693 202.544 306.693 201.954C307.075 201.763 307.457 201.572 307.851 201.376C307.851 200.612 307.851 199.848 307.851 199.061C308.042 199.061 308.233 199.061 308.429 199.061C308.429 198.679 308.429 198.297 308.429 197.904C308.62 197.904 308.811 197.904 309.008 197.904C308.998 197.726 308.988 197.548 308.977 197.364C308.97 197.131 308.962 196.897 308.954 196.656C308.944 196.424 308.934 196.193 308.923 195.954C309.028 195.143 309.301 194.983 309.876 194.432C310.041 193.841 310.041 193.841 310.075 193.22C310.12 192.674 310.12 192.674 310.165 192.117C310.356 192.117 310.547 192.117 310.744 192.117C310.744 191.735 310.744 191.353 310.744 190.96C310.553 190.864 310.362 190.769 310.165 190.67C310.165 190.384 310.165 190.097 310.165 189.802C310.356 189.802 310.547 189.802 310.744 189.802C310.744 189.993 310.744 190.184 310.744 190.381C310.935 190.381 311.126 190.381 311.323 190.381C311.323 189.617 311.323 188.853 311.323 188.066C311.514 188.066 311.705 188.066 311.901 188.066C311.901 187.111 311.901 186.157 311.901 185.173C312.092 185.173 312.283 185.173 312.48 185.173C312.711 182.09 312.816 179.026 312.807 175.935C312.806 175.26 312.807 174.584 312.809 173.909C312.81 171.477 312.739 169.077 312.48 166.656C312.289 166.656 312.098 166.656 311.901 166.656C311.901 165.892 311.901 165.128 311.901 164.341C311.71 164.341 311.519 164.341 311.323 164.341C311.323 163.195 311.323 162.049 311.323 160.869C311.132 160.869 310.941 160.869 310.744 160.869C310.744 160.296 310.744 159.723 310.744 159.133C310.553 159.133 310.362 159.133 310.165 159.133C310.165 158.56 310.165 157.987 310.165 157.397C309.974 157.397 309.783 157.397 309.587 157.397C309.53 156.803 309.474 156.21 309.417 155.617C309.378 155.44 309.338 155.264 309.297 155.082C309.106 154.987 308.915 154.891 308.719 154.793C308.516 154.315 308.326 153.831 308.14 153.346C307.839 152.741 307.529 152.142 307.215 151.543C306.983 151.032 306.983 151.032 306.983 150.453C306.696 150.453 306.41 150.453 306.115 150.453C306.115 150.262 306.115 150.071 306.115 149.874C305.924 149.874 305.733 149.874 305.536 149.874C305.536 149.301 305.536 148.728 305.536 148.138C305.154 148.138 304.772 148.138 304.379 148.138C304.283 147.661 304.188 147.183 304.089 146.692C303.803 146.596 303.516 146.501 303.221 146.402C303.221 146.211 303.221 146.02 303.221 145.824C303.03 145.824 302.839 145.824 302.643 145.824C302.643 145.633 302.643 145.442 302.643 145.245C302.261 145.054 301.879 144.863 301.485 144.666C301.485 144.284 301.485 143.902 301.485 143.509C301.294 143.509 301.103 143.509 300.907 143.509C300.811 143.222 300.716 142.936 300.617 142.641C300.331 142.545 300.044 142.45 299.749 142.352C299.46 141.869 299.171 141.387 298.881 140.905C298.595 140.809 298.308 140.714 298.013 140.616C298.013 140.425 298.013 140.234 298.013 140.037C297.822 140.037 297.631 140.037 297.435 140.037C297.435 139.846 297.435 139.655 297.435 139.458C297.244 139.458 297.053 139.458 296.856 139.458C296.856 139.267 296.856 139.076 296.856 138.88C296.665 138.88 296.474 138.88 296.277 138.88C296.277 138.689 296.277 138.498 296.277 138.301C295.895 138.301 295.514 138.301 295.12 138.301C295.12 138.492 295.12 138.683 295.12 138.88C294.929 138.88 294.738 138.88 294.541 138.88C294.541 138.498 294.541 138.116 294.541 137.722C294.35 137.722 294.159 137.722 293.963 137.722C293.963 137.531 293.963 137.34 293.963 137.144C293.772 137.144 293.581 137.144 293.384 137.144C293.384 136.953 293.384 136.762 293.384 136.565C293.002 136.565 292.62 136.565 292.227 136.565C292.227 136.374 292.227 136.183 292.227 135.986C292.036 135.986 291.845 135.986 291.648 135.986C291.648 135.795 291.648 135.604 291.648 135.408C291.397 135.33 291.147 135.252 290.889 135.172C289.912 134.829 289.912 134.829 289.098 134.377C287.928 133.849 286.842 133.753 285.572 133.672C285.477 133.29 285.381 132.908 285.283 132.514C284.328 132.514 283.373 132.514 282.389 132.514C282.389 132.323 282.389 132.132 282.389 131.936C281.472 131.429 280.586 131.165 279.568 130.923C279.264 130.849 278.96 130.776 278.646 130.7C278.354 130.63 278.061 130.561 277.76 130.489C277.302 130.375 276.844 130.261 276.386 130.145C276.075 130.068 275.765 129.99 275.445 129.91C275.813 129.486 276.18 129.063 276.547 128.639C276.952 128.143 276.952 128.143 277.181 127.306C277.372 127.306 277.563 127.306 277.76 127.306C277.76 127.115 277.76 126.924 277.76 126.728C278.049 126.438 278.339 126.149 278.628 125.86C278.723 125.573 278.819 125.287 278.917 124.992C279.108 124.992 279.299 124.992 279.496 124.992C279.496 124.61 279.496 124.228 279.496 123.834C279.785 123.545 280.075 123.256 280.364 122.966C280.412 122.727 280.459 122.489 280.509 122.243C280.653 121.52 280.653 121.52 281.084 121.143C281.696 120.455 281.667 119.913 281.72 119.006C281.749 118.575 281.749 118.575 281.778 118.135C281.789 117.915 281.8 117.695 281.811 117.469C282.002 117.469 282.193 117.469 282.389 117.469C282.389 114.986 282.389 112.504 282.389 109.946C282.198 109.946 282.007 109.946 281.811 109.946C281.715 109.087 281.62 108.228 281.521 107.342C281.426 107.342 281.33 107.342 281.232 107.342C281.166 107.014 281.101 106.686 281.033 106.348C280.726 105.089 280.168 104.072 279.503 102.968C279.207 102.424 279.207 102.424 279.207 101.845C278.92 101.845 278.634 101.845 278.339 101.845C278.339 101.463 278.339 101.081 278.339 100.688C278.148 100.688 277.957 100.688 277.76 100.688C277.321 100.232 277.321 100.232 276.82 99.6206C275.75 98.3643 274.733 97.1709 273.131 96.6368C273.131 96.4459 273.131 96.2549 273.131 96.0582C272.558 96.0582 271.985 96.0582 271.395 96.0582C271.395 95.8672 271.395 95.6763 271.395 95.4795C271.204 95.4795 271.013 95.4795 270.816 95.4795C270.816 95.2886 270.816 95.0976 270.816 94.9008C270.052 94.9008 269.288 94.9008 268.501 94.9008C268.501 94.7099 268.501 94.5189 268.501 94.3222C268.31 94.3222 268.119 94.3222 267.923 94.3222C267.923 94.1312 267.923 93.9403 267.923 93.7435C267.092 93.5114 266.32 93.4037 265.46 93.3626C265.095 93.3444 265.095 93.3444 264.724 93.3259C264.347 93.3088 264.347 93.3088 263.962 93.2914C263.708 93.2789 263.453 93.2664 263.191 93.2536C261.853 93.1886 260.598 93.188 259.261 93.2914C258.948 93.3149 258.635 93.3384 258.313 93.3626C257.52 93.4059 257.52 93.4059 256.928 93.7435C256.155 93.7823 255.388 93.756 254.613 93.7435C254.613 93.9345 254.613 94.1254 254.613 94.3222C254.231 94.3222 253.85 94.3222 253.456 94.3222C253.456 94.5131 253.456 94.7041 253.456 94.9008C253.074 94.9008 252.692 94.9008 252.299 94.9008C252.299 95.0918 252.299 95.2828 252.299 95.4795C251.917 95.4795 251.535 95.4795 251.141 95.4795C251.141 95.6705 251.141 95.8614 251.141 96.0582C250.559 96.4436 250.559 96.4436 249.785 96.8719C247.695 98.0801 247.695 98.0801 246.512 100.109C246.321 100.109 246.13 100.109 245.933 100.109C245.933 100.3 245.933 100.491 245.933 100.688C245.391 101.302 245.391 101.302 244.776 101.845C244.585 101.845 244.394 101.845 244.197 101.845C244.197 102.227 244.197 102.609 244.197 103.002C244.006 103.002 243.815 103.002 243.619 103.002C243.619 103.384 243.619 103.766 243.619 104.16C243.428 104.16 243.237 104.16 243.04 104.16C243.04 104.541 243.04 104.923 243.04 105.317C242.754 105.46 242.754 105.46 242.461 105.606C241.632 107.349 241.419 109.199 241.304 111.104C241.113 111.104 240.922 111.104 240.725 111.104C240.821 112.727 240.916 114.35 241.015 116.022C241.11 116.022 241.206 116.022 241.304 116.022C241.399 117.454 241.495 118.887 241.593 120.362C241.88 120.362 242.166 120.362 242.461 120.362C242.461 120.935 242.461 121.508 242.461 122.098C242.652 122.098 242.843 122.098 243.04 122.098C243.112 122.343 243.183 122.588 243.257 122.84C243.934 124.792 243.934 124.792 245.355 126.149C245.355 126.34 245.355 126.531 245.355 126.728C245.546 126.728 245.737 126.728 245.933 126.728C246.23 127.205 246.519 127.688 246.801 128.174C246.962 128.335 247.124 128.496 247.29 128.662C247.415 128.788 247.54 128.913 247.669 129.042C247.669 129.233 247.669 129.424 247.669 129.621C244.797 128.353 242.827 124.658 241.714 121.874C240.701 119.088 240.377 116.767 240.364 113.816C240.358 113.49 240.352 113.165 240.346 112.829C240.336 110.668 240.62 108.812 241.304 106.764C241.385 106.516 241.466 106.268 241.549 106.013C243.349 100.731 247.704 96.729 252.534 94.2318C260.039 90.5433 268.734 91.9225 275.272 96.89Z" fill="#0C84C7"/>
<path d="M160.58 155.372C161.249 155.842 161.249 155.842 161.737 156.53C161.866 158.042 161.633 158.989 160.942 160.327C157.293 167.847 157.906 175.968 159.133 184.016C158.704 184.16 158.704 184.16 158.265 184.306C155.202 177.431 151.869 168.828 152.768 161.159C153.232 160.255 153.808 159.58 154.504 158.844C154.787 158.489 155.071 158.133 155.354 157.777C156.724 156.202 158.401 154.682 160.58 155.372Z" fill="#2F3131"/>
<path d="M289.623 199.351C289.718 199.351 289.814 199.351 289.912 199.351C289.912 200.21 289.912 201.069 289.912 201.955C289.721 201.955 289.53 201.955 289.333 201.955C289.333 202.527 289.333 203.1 289.333 203.691C289.047 203.691 288.76 203.691 288.465 203.691C288.403 204.183 288.403 204.183 288.339 204.685C288.176 205.716 288.176 205.716 287.887 206.005C287.82 206.395 287.768 206.788 287.724 207.181C287.682 207.557 287.64 207.933 287.597 208.32C287.311 208.32 287.024 208.32 286.729 208.32C286.634 209.466 286.538 210.611 286.44 211.792C286.249 211.792 286.058 211.792 285.861 211.792C285.861 211.983 285.861 212.174 285.861 212.371C285.67 212.371 285.479 212.371 285.283 212.371C285.283 213.325 285.283 214.28 285.283 215.264C285.092 215.264 284.901 215.264 284.704 215.264C284.704 215.455 284.704 215.646 284.704 215.843C284.322 215.843 283.94 215.843 283.547 215.843C283.547 216.415 283.547 216.988 283.547 217.579C283.356 217.579 283.165 217.579 282.968 217.579C282.777 218.533 282.586 219.488 282.389 220.472C282.198 220.472 282.007 220.472 281.811 220.472C281.811 220.854 281.811 221.236 281.811 221.629C281.62 221.629 281.429 221.629 281.232 221.629C281.328 221.916 281.423 222.202 281.521 222.497C281.426 222.784 281.33 223.07 281.232 223.365C280.85 223.365 280.468 223.365 280.075 223.365C280.075 223.747 280.075 224.129 280.075 224.523C279.884 224.523 279.693 224.523 279.496 224.523C279.496 224.905 279.496 225.286 279.496 225.68C279.305 225.68 279.114 225.68 278.917 225.68C278.917 226.062 278.917 226.444 278.917 226.837C278.535 226.837 278.154 226.837 277.76 226.837C277.715 227.149 277.715 227.149 277.67 227.468C277.449 228.373 277.101 228.983 276.603 229.767C276.112 230.543 275.737 231.171 275.445 232.045C275.231 232.242 275.231 232.242 275.011 232.443C274.512 232.901 274.512 232.901 274.433 233.655C274.288 234.36 274.288 234.36 273.42 234.939C273.211 235.534 273.211 235.534 273.131 236.096C272.94 236.096 272.749 236.096 272.552 236.096C272.552 236.669 272.552 237.242 272.552 237.832C272.331 237.892 272.11 237.951 271.883 238.013C270.865 238.533 270.694 239.125 270.237 240.147C270.046 240.242 269.855 240.338 269.659 240.436C269.524 240.785 269.524 240.785 269.387 241.141C269.08 241.883 269.08 241.883 268.212 242.461C268.176 242.634 268.14 242.807 268.104 242.986C267.833 243.931 267.175 244.382 266.476 245.065C265.257 246.538 265.257 246.538 264.451 248.248C264.26 248.248 264.069 248.248 263.872 248.248C263.872 248.439 263.872 248.63 263.872 248.827C263.681 248.827 263.49 248.827 263.293 248.827C263.293 249.018 263.293 249.209 263.293 249.405C263.102 249.405 262.911 249.405 262.715 249.405C262.524 249.883 262.333 250.36 262.136 250.852C261.945 250.852 261.754 250.852 261.557 250.852C261.492 251.007 261.426 251.162 261.358 251.322C260.979 252.009 260.979 252.009 260.237 252.895C259.493 253.688 259.493 253.688 259.243 254.613C259.052 254.613 258.861 254.613 258.664 254.613C258.664 254.804 258.664 254.995 258.664 255.192C258.473 255.192 258.282 255.192 258.085 255.192C258.085 255.383 258.085 255.574 258.085 255.771C257.616 256.265 257.133 256.747 256.639 257.217C255.956 257.9 255.918 258.311 255.771 259.243C255.389 259.243 255.007 259.243 254.613 259.243C254.613 259.625 254.613 260.006 254.613 260.4C254.231 260.4 253.85 260.4 253.456 260.4C253.456 260.591 253.456 260.782 253.456 260.979C252.975 261.27 252.493 261.559 252.009 261.847C251.818 262.133 251.627 262.419 251.431 262.715C251.24 262.715 251.049 262.715 250.852 262.715C250.757 263.097 250.661 263.478 250.563 263.872C250.372 263.872 250.181 263.872 249.984 263.872C249.912 264.039 249.841 264.206 249.767 264.378C249.352 265.125 248.889 265.626 248.248 266.187C248.057 266.187 247.866 266.187 247.669 266.187C247.669 266.378 247.669 266.569 247.669 266.765C247.189 267.058 246.707 267.347 246.223 267.633C245.831 268.007 245.452 268.394 245.083 268.791C243.397 270.525 241.489 271.958 239.568 273.42C240.723 273.182 241.487 272.63 242.461 271.973C242.652 271.973 242.843 271.973 243.04 271.973C243.04 271.782 243.04 271.591 243.04 271.395C243.461 271.269 243.461 271.269 243.89 271.141C244.807 270.919 244.807 270.919 245.065 270.237C246.367 269.369 246.367 269.369 247.091 269.369C247.091 269.083 247.091 268.796 247.091 268.501C248.236 268.215 248.236 268.215 249.405 267.923C249.405 267.732 249.405 267.541 249.405 267.344C249.923 267.061 250.441 266.779 250.959 266.496C251.479 266.211 251.479 266.211 251.72 265.608C252.132 265.344 252.556 265.1 252.986 264.867C253.215 264.741 253.444 264.615 253.68 264.486C254.324 264.161 254.324 264.161 255.192 263.872C255.192 263.681 255.192 263.49 255.192 263.293C255.383 263.293 255.574 263.293 255.771 263.293C255.771 263.102 255.771 262.911 255.771 262.715C256.289 262.432 256.807 262.149 257.325 261.867C257.844 261.582 257.844 261.582 258.085 260.979C258.276 260.979 258.467 260.979 258.664 260.979C258.664 260.788 258.664 260.597 258.664 260.4C259.046 260.4 259.428 260.4 259.821 260.4C259.821 260.209 259.821 260.018 259.821 259.821C260.012 259.821 260.203 259.821 260.4 259.821C260.4 259.63 260.4 259.439 260.4 259.243C260.591 259.243 260.782 259.243 260.979 259.243C260.979 259.052 260.979 258.861 260.979 258.664C261.17 258.664 261.361 258.664 261.557 258.664C261.557 258.473 261.557 258.282 261.557 258.085C262.13 257.894 262.703 257.703 263.293 257.507C263.293 257.316 263.293 257.125 263.293 256.928C263.484 256.928 263.675 256.928 263.872 256.928C263.872 256.737 263.872 256.546 263.872 256.349C264.221 256.224 264.221 256.224 264.577 256.096C265.357 255.848 265.357 255.848 265.608 255.192C265.799 255.192 265.99 255.192 266.187 255.192C266.187 255.001 266.187 254.81 266.187 254.613C266.378 254.613 266.569 254.613 266.765 254.613C266.765 254.422 266.765 254.231 266.765 254.035C266.956 254.035 267.147 254.035 267.344 254.035C267.344 253.844 267.344 253.653 267.344 253.456C267.726 253.456 268.108 253.456 268.501 253.456C268.501 253.265 268.501 253.074 268.501 252.877C268.692 252.877 268.883 252.877 269.08 252.877C269.08 252.686 269.08 252.495 269.08 252.299C269.271 252.299 269.462 252.299 269.659 252.299C269.659 252.108 269.659 251.917 269.659 251.72C269.85 251.72 270.041 251.72 270.237 251.72C270.237 251.529 270.237 251.338 270.237 251.141C270.619 251.141 271.001 251.141 271.395 251.141C271.395 250.95 271.395 250.759 271.395 250.563C271.828 250.147 271.828 250.147 272.389 249.695C273.175 249.074 273.175 249.074 273.709 248.248C273.9 248.248 274.091 248.248 274.288 248.248C274.288 247.866 274.288 247.484 274.288 247.091C274.604 246.965 274.921 246.84 275.246 246.711C276.051 246.369 276.621 246.047 277.181 245.355C277.372 245.45 277.563 245.546 277.76 245.644C277.182 246.23 276.604 246.814 276.024 247.398C275.864 247.56 275.704 247.723 275.539 247.89C273.575 249.865 271.451 251.64 269.297 253.402C267.54 254.84 267.54 254.84 265.797 256.295C264.139 257.693 262.452 259.028 260.709 260.317C259.936 260.893 259.175 261.48 258.416 262.073C256.806 263.329 255.163 264.499 253.453 265.617C252.592 266.184 251.749 266.77 250.906 267.362C247.197 269.934 243.435 272.464 239.514 274.704C239.328 274.811 239.143 274.919 238.952 275.029C237.99 275.565 237.518 275.735 236.385 275.735C237.32 273.472 239.881 271.923 241.776 270.476C242.576 269.86 243.36 269.228 244.143 268.592C244.402 268.382 244.66 268.172 244.926 267.955C245.651 267.358 245.651 267.358 246.28 266.687C246.801 266.187 246.801 266.187 247.38 266.187C247.458 266.002 247.535 265.817 247.615 265.626C247.959 265.029 247.959 265.029 248.827 264.74C248.91 264.573 248.994 264.406 249.08 264.234C249.52 263.354 250.146 262.822 250.852 262.136C252.873 260.165 254.814 258.202 256.57 255.984C257.276 255.12 258.027 254.305 258.791 253.492C260.288 251.886 261.623 250.187 262.938 248.43C263.405 247.811 263.885 247.202 264.363 246.592C265.995 244.503 267.502 242.337 268.983 240.141C269.348 239.6 269.714 239.061 270.081 238.522C274.832 231.513 279.074 224.223 282.639 216.541C282.939 215.904 283.251 215.275 283.569 214.647C284.158 213.479 284.684 212.291 285.192 211.087C285.29 210.857 285.387 210.626 285.487 210.389C286.695 207.481 287.734 204.509 288.776 201.538C289.042 200.802 289.328 200.076 289.623 199.351Z" fill="#0D83C6"/>
<path d="M247.669 129.621C248.212 129.693 248.212 129.693 248.827 129.91C249.152 130.489 249.152 130.489 249.405 131.068C249.692 131.211 249.692 131.211 249.984 131.357C249.718 131.368 249.453 131.379 249.179 131.39C247.407 131.485 245.849 131.568 244.222 132.293C242.922 132.77 241.513 132.9 240.147 133.093C240.147 133.284 240.147 133.475 240.147 133.672C239.86 133.576 239.574 133.481 239.279 133.382C238.992 133.573 238.706 133.764 238.411 133.961C238.411 134.057 238.411 134.152 238.411 134.25C237.647 134.25 236.883 134.25 236.096 134.25C236.096 134.441 236.096 134.632 236.096 134.829C235.714 134.829 235.332 134.829 234.939 134.829C234.939 135.02 234.939 135.211 234.939 135.408C234.366 135.408 233.793 135.408 233.203 135.408C233.203 135.599 233.203 135.79 233.203 135.986C232.155 136.367 231.439 136.565 230.309 136.565C230.309 136.756 230.309 136.947 230.309 137.144C230.118 137.144 229.927 137.144 229.731 137.144C229.731 137.335 229.731 137.526 229.731 137.722C229.158 137.722 228.585 137.722 227.995 137.722C227.995 137.913 227.995 138.104 227.995 138.301C227.804 138.301 227.613 138.301 227.416 138.301C227.416 138.11 227.416 137.919 227.416 137.722C227.225 137.722 227.034 137.722 226.837 137.722C226.837 137.913 226.837 138.104 226.837 138.301C226.455 138.301 226.073 138.301 225.68 138.301C225.68 138.492 225.68 138.683 225.68 138.88C225.107 138.88 224.534 138.88 223.944 138.88C223.944 139.071 223.944 139.262 223.944 139.458C221.554 140.286 221.554 140.286 220.472 140.489C220.281 140.531 220.09 140.573 219.893 140.616C219.75 140.902 219.75 140.902 219.604 141.194C218.745 141.194 217.885 141.194 217 141.194C217 141.003 217 140.813 217 140.616C216.805 140.587 216.609 140.559 216.408 140.53C214.854 140.269 214.013 140.09 212.949 138.88C211.806 138.319 210.737 137.913 209.477 137.722C209.477 137.531 209.477 137.341 209.477 137.144C209.273 137.105 209.069 137.067 208.859 137.027C208.011 136.85 207.184 136.634 206.349 136.402C206.067 136.324 205.784 136.246 205.493 136.166C205.28 136.107 205.067 136.048 204.848 135.986C204.848 135.795 204.848 135.605 204.848 135.408C204.084 135.408 203.32 135.408 202.533 135.408C202.533 135.217 202.533 135.026 202.533 134.829C201.769 134.829 201.006 134.829 200.219 134.829C200.219 134.638 200.219 134.447 200.219 134.25C199.837 134.25 199.455 134.25 199.061 134.25C199.061 134.059 199.061 133.869 199.061 133.672C198.202 133.529 198.202 133.529 197.325 133.382C201.183 131.945 209.338 136.44 212.941 138.024C214.136 138.588 215.292 139.238 216.423 139.921C217.227 140.385 217.779 140.617 218.715 140.601C219.841 140.253 220.864 139.783 221.919 139.26C225.813 137.35 229.755 135.828 233.872 134.486C234.333 134.334 234.794 134.182 235.256 134.029C236.127 133.742 236.999 133.456 237.872 133.171C238.741 132.886 239.607 132.596 240.473 132.302C241.572 131.935 242.678 131.631 243.799 131.339C245.191 130.976 246.577 130.599 247.959 130.2C247.863 130.009 247.768 129.818 247.669 129.621Z" fill="#0C85C7"/>
<path d="M168.681 129.332C169.821 129.324 170.96 129.319 172.099 129.314C172.577 129.31 172.577 129.31 173.064 129.307C177.474 129.294 177.474 129.294 179.097 129.621C179.241 129.908 179.241 129.908 179.387 130.2C177.095 130.2 174.804 130.2 172.443 130.2C172.443 130.391 172.443 130.582 172.443 130.779C172.691 130.836 172.691 130.836 172.945 130.895C173.593 131.066 174.204 131.28 174.83 131.52C175.034 131.598 175.239 131.676 175.449 131.756C175.603 131.816 175.756 131.875 175.915 131.936C175.915 132.127 175.915 132.318 175.915 132.515C176.159 132.545 176.403 132.574 176.654 132.605C177.764 132.827 178.681 133.209 179.712 133.672C181.245 134.372 181.245 134.372 182.859 134.829C182.859 135.02 182.859 135.211 182.859 135.408C183.241 135.408 183.623 135.408 184.016 135.408C184.016 135.599 184.016 135.79 184.016 135.987C184.183 136.029 184.35 136.07 184.522 136.113C185.125 136.264 185.728 136.415 186.331 136.565C186.331 136.756 186.331 136.947 186.331 137.144C186.496 137.183 186.662 137.221 186.833 137.261C187.481 137.432 188.092 137.646 188.718 137.886C188.922 137.963 189.127 138.041 189.337 138.122C189.491 138.181 189.644 138.24 189.803 138.301C189.803 138.492 189.803 138.683 189.803 138.88C190.376 138.88 190.948 138.88 191.539 138.88C191.634 139.167 191.73 139.453 191.828 139.748C192.305 139.844 192.783 139.939 193.275 140.037C193.275 140.228 193.275 140.419 193.275 140.616C193.657 140.616 194.039 140.616 194.432 140.616C194.432 140.807 194.432 140.998 194.432 141.195C194.611 141.237 194.79 141.278 194.975 141.321C195.589 141.484 195.589 141.484 196.168 141.773C196.168 141.964 196.168 142.155 196.168 142.352C196.359 142.352 196.55 142.352 196.747 142.352C196.747 142.639 196.747 142.925 196.747 143.22C196.956 143.298 197.164 143.375 197.38 143.455C198.193 143.799 198.912 144.168 199.64 144.667C199.64 144.858 199.64 145.049 199.64 145.245C200.022 145.245 200.404 145.245 200.797 145.245C200.797 145.436 200.797 145.627 200.797 145.824C201.179 145.824 201.561 145.824 201.955 145.824C201.955 146.015 201.955 146.206 201.955 146.403C202.146 146.403 202.337 146.403 202.533 146.403C202.533 146.594 202.533 146.785 202.533 146.981C202.915 146.981 203.297 146.981 203.691 146.981C203.691 147.363 203.691 147.745 203.691 148.139C204.073 148.139 204.455 148.139 204.848 148.139C204.848 148.33 204.848 148.521 204.848 148.717C205.421 149.004 205.421 149.004 206.005 149.296C206.005 149.678 206.005 150.06 206.005 150.453C206.172 150.525 206.34 150.597 206.512 150.67C207.25 151.08 207.747 151.575 208.32 152.189C208.225 152.38 208.129 152.571 208.031 152.768C207.81 152.558 207.588 152.347 207.361 152.131C203.962 148.929 200.415 146.001 196.457 143.509C196.168 143.327 195.878 143.144 195.579 142.956C194.795 142.468 194.007 141.986 193.216 141.509C192.859 141.293 192.503 141.076 192.148 140.858C188.778 138.787 185.305 137.037 181.701 135.408C181.449 135.294 181.197 135.179 180.937 135.061C177.837 133.663 174.72 132.441 171.477 131.417C171.237 131.341 170.997 131.265 170.75 131.187C170.538 131.122 170.327 131.056 170.109 130.989C169.549 130.779 169.549 130.779 168.681 130.2C168.681 129.914 168.681 129.627 168.681 129.332Z" fill="#0D84C6"/>
<path d="M190.96 131.357C191.49 131.461 192.019 131.566 192.549 131.67C193.949 131.947 195.348 132.229 196.747 132.514C196.747 132.705 196.747 132.896 196.747 133.093C194.193 132.747 191.662 132.368 189.151 131.784C188.275 131.632 187.459 131.614 186.569 131.618C186.067 131.619 186.067 131.619 185.555 131.621C185.208 131.623 184.861 131.626 184.504 131.628C183.976 131.63 183.976 131.63 183.437 131.632C182.569 131.636 181.701 131.64 180.833 131.646C180.738 131.933 180.642 132.219 180.544 132.514C180.162 132.514 179.78 132.514 179.387 132.514C179.387 132.705 179.387 132.896 179.387 133.093C179.769 133.093 180.15 133.093 180.544 133.093C180.448 133.475 180.353 133.857 180.255 134.25C178.106 133.391 178.106 133.391 175.915 132.514C175.915 132.323 175.915 132.132 175.915 131.936C175.539 131.891 175.539 131.891 175.155 131.845C174.13 131.636 173.356 131.278 172.443 130.778C172.443 130.587 172.443 130.396 172.443 130.2C178.748 129.776 184.768 130.111 190.96 131.357Z" fill="#0691D5"/>
<path d="M262.981 151.535C263.746 151.538 264.51 151.535 265.275 151.531C268.326 151.529 271.271 151.724 274.288 152.189C274.288 152.38 274.288 152.571 274.288 152.768C274.515 152.756 274.742 152.744 274.975 152.732C276.329 152.778 277.598 153.054 278.917 153.346C278.917 153.633 278.917 153.919 278.917 154.214C279.192 154.268 279.466 154.322 279.749 154.377C282.129 155.06 284.47 157.065 286.151 158.844C286.151 159.035 286.151 159.226 286.151 159.422C286.342 159.422 286.533 159.422 286.729 159.422C287.269 160.075 287.772 160.726 288.266 161.412C288.481 161.707 288.481 161.707 288.701 162.008C289.758 163.485 290.635 164.987 291.359 166.656C291.454 166.847 291.55 167.038 291.648 167.234C291.127 167.205 291.127 167.205 290.491 166.945C290.026 166.143 290.026 166.143 289.568 165.101C288.61 163.04 287.396 161.396 285.861 159.712C285.68 159.504 285.5 159.296 285.313 159.082C280.702 154.083 273.484 152.481 266.953 152.138C259.057 151.835 251.413 152.881 243.789 154.891C242.677 155.175 241.558 155.419 240.436 155.661C240.532 155.47 240.627 155.279 240.725 155.082C241.107 155.082 241.489 155.082 241.883 155.082C241.883 154.891 241.883 154.7 241.883 154.504C242.456 154.504 243.028 154.504 243.619 154.504C243.619 154.313 243.619 154.122 243.619 153.925C244.383 153.925 245.146 153.925 245.933 153.925C245.933 153.734 245.933 153.543 245.933 153.346C246.697 153.346 247.461 153.346 248.248 153.346C248.248 153.155 248.248 152.964 248.248 152.768C248.917 152.683 249.586 152.599 250.255 152.515C250.628 152.468 251 152.421 251.384 152.372C251.719 152.332 251.719 152.332 252.061 152.291C252.684 152.213 253.307 152.129 253.93 152.042C256.953 151.634 259.932 151.52 262.981 151.535Z" fill="#0C81C4"/>
<path d="M240.147 155.951C238.44 156.673 236.734 157.378 234.993 158.012C229.808 160.003 224.246 162.505 219.871 165.975C219.166 166.471 218.711 166.437 217.868 166.367C217.747 166.109 217.747 166.109 217.623 165.846C216.289 163.088 214.709 160.58 212.742 158.229C212.371 157.687 212.371 157.687 212.371 156.819C212.562 156.819 212.753 156.819 212.949 156.819C212.949 157.01 212.949 157.201 212.949 157.397C213.14 157.397 213.331 157.397 213.528 157.397C213.635 157.719 213.635 157.719 213.745 158.048C214.064 158.873 214.064 158.873 214.721 159.459C215.264 160.001 215.264 160.001 215.264 160.869C215.455 160.869 215.646 160.869 215.843 160.869C216.457 161.376 216.457 161.376 217 162.027C217 162.409 217 162.79 217 163.184C217.191 163.184 217.382 163.184 217.579 163.184C217.579 163.375 217.579 163.566 217.579 163.763C217.77 163.763 217.961 163.763 218.157 163.763C218.157 164.335 218.157 164.908 218.157 165.499C218.539 165.499 218.921 165.499 219.315 165.499C219.315 164.926 219.315 164.353 219.315 163.763C219.697 163.763 220.078 163.763 220.472 163.763C220.472 163.954 220.472 164.145 220.472 164.341C220.854 164.341 221.236 164.341 221.629 164.341C221.629 164.15 221.629 163.959 221.629 163.763C222.202 163.572 222.775 163.381 223.365 163.184C223.365 162.993 223.365 162.802 223.365 162.605C223.556 162.605 223.747 162.605 223.944 162.605C223.944 162.414 223.944 162.223 223.944 162.027C224.123 161.943 224.302 161.859 224.486 161.773C225.14 161.466 225.14 161.466 225.68 160.869C226.062 160.869 226.444 160.869 226.837 160.869C226.837 160.678 226.837 160.487 226.837 160.291C227.219 160.291 227.601 160.291 227.995 160.291C227.995 160.1 227.995 159.909 227.995 159.712C228.758 159.616 229.522 159.521 230.309 159.423C230.309 159.136 230.309 158.85 230.309 158.555C230.882 158.555 231.455 158.555 232.045 158.555C232.045 158.364 232.045 158.173 232.045 157.976C232.427 157.976 232.809 157.976 233.203 157.976C233.203 157.785 233.203 157.594 233.203 157.397C233.489 157.367 233.775 157.338 234.071 157.307C235.304 157.132 236.391 156.701 237.543 156.24C239.171 155.625 239.171 155.625 240.147 155.951Z" fill="#0C87CA"/>
<path d="M297.724 220.762C297.867 221.048 297.867 221.048 298.013 221.34C295.522 225.174 292.841 228.824 289.912 232.335C289.478 232.871 289.044 233.408 288.61 233.944C287.569 235.218 286.49 236.45 285.38 237.664C284.832 238.27 284.298 238.883 283.765 239.502C282.644 240.786 281.45 241.987 280.237 243.185C280.026 243.395 279.814 243.606 279.596 243.822C279.081 244.334 278.566 244.845 278.049 245.355C278.049 244.487 278.049 244.487 278.61 243.908C278.905 243.622 278.905 243.622 279.207 243.33C279.302 243.043 279.398 242.757 279.496 242.462C279.978 242.172 280.46 241.883 280.943 241.594C281.038 241.307 281.134 241.021 281.232 240.726C281.662 240.582 281.662 240.582 282.1 240.436C282.195 240.15 282.291 239.864 282.389 239.568C282.58 239.568 282.771 239.568 282.968 239.568C282.968 239.377 282.968 239.186 282.968 238.99C283.542 238.502 284.12 238.019 284.704 237.543C284.799 237.352 284.895 237.161 284.993 236.964C285.184 236.964 285.375 236.964 285.572 236.964C285.572 236.773 285.572 236.582 285.572 236.386C285.763 236.386 285.954 236.386 286.151 236.386C286.437 235.526 286.724 234.667 287.019 233.782C287.21 233.782 287.401 233.782 287.597 233.782C287.597 233.591 287.597 233.4 287.597 233.203C287.979 233.203 288.361 233.203 288.755 233.203C288.946 232.63 289.137 232.057 289.333 231.467C289.62 231.467 289.906 231.467 290.201 231.467C290.279 231.258 290.356 231.049 290.436 230.834C290.964 229.585 291.374 228.756 292.516 227.995C292.725 227.399 292.725 227.399 292.805 226.838C292.996 226.838 293.187 226.838 293.384 226.838C293.384 226.647 293.384 226.456 293.384 226.259C293.67 226.068 293.957 225.877 294.252 225.68C294.461 225.085 294.461 225.085 294.541 224.523C294.732 224.523 294.923 224.523 295.12 224.523C295.12 224.141 295.12 223.759 295.12 223.366C295.311 223.366 295.502 223.366 295.699 223.366C295.699 222.984 295.699 222.602 295.699 222.208C296.081 222.208 296.462 222.208 296.856 222.208C296.856 221.826 296.856 221.445 296.856 221.051C297.142 220.956 297.429 220.86 297.724 220.762Z" fill="#0C84C8"/>
<path d="M291.069 167.524C292.066 168.522 292.531 169.914 292.805 171.286C292.996 171.286 293.187 171.286 293.384 171.286C293.391 173.253 293.396 175.22 293.4 177.188C293.401 177.857 293.403 178.527 293.406 179.196C293.409 180.157 293.411 181.118 293.412 182.079C293.414 182.38 293.415 182.681 293.417 182.991C293.417 183.269 293.417 183.547 293.417 183.833C293.417 184.079 293.418 184.324 293.419 184.577C293.384 185.174 293.384 185.174 293.095 185.752C293.028 186.438 292.976 187.126 292.932 187.814C292.908 188.185 292.883 188.555 292.858 188.937C292.841 189.223 292.823 189.509 292.805 189.803C292.614 189.803 292.423 189.803 292.227 189.803C292.214 189.977 292.201 190.15 292.188 190.329C292.031 192.184 291.694 193.934 291.232 195.734C291.169 195.993 291.106 196.251 291.042 196.517C290.98 196.763 290.917 197.009 290.853 197.262C290.798 197.483 290.742 197.704 290.685 197.932C290.491 198.483 290.491 198.483 289.912 199.062C290.085 197.479 290.358 195.975 290.744 194.432C292.715 186.26 293.74 177.193 291.239 169.021C291.069 168.392 291.069 168.392 291.069 167.524Z" fill="#0E7EC3"/>
<path d="M252.009 265.897C252.153 266.184 252.153 266.184 252.299 266.476C250.855 267.445 249.408 268.409 247.959 269.369C247.728 269.523 247.497 269.676 247.26 269.834C244.733 271.508 242.199 273.162 239.568 274.668C239.379 274.778 239.191 274.887 238.996 275C238.021 275.546 237.533 275.735 236.385 275.735C237.408 273.26 240.376 271.514 242.461 269.948C242.665 269.786 242.869 269.624 243.078 269.458C243.619 269.08 243.619 269.08 244.197 269.08C243.814 269.959 243.437 270.466 242.676 271.047C242.405 271.256 242.405 271.256 242.128 271.471C241.94 271.613 241.751 271.755 241.557 271.901C241.367 272.048 241.176 272.194 240.98 272.345C240.511 272.706 240.04 273.063 239.568 273.42C240.723 273.183 241.487 272.63 242.461 271.973C242.652 271.973 242.843 271.973 243.04 271.973C243.04 271.783 243.04 271.592 243.04 271.395C243.321 271.311 243.601 271.228 243.89 271.142C244.807 270.92 244.807 270.92 245.065 270.237C246.367 269.369 246.367 269.369 247.091 269.369C247.091 269.083 247.091 268.797 247.091 268.501C247.855 268.311 248.618 268.12 249.405 267.923C249.405 267.732 249.405 267.541 249.405 267.344C250.265 266.867 251.124 266.389 252.009 265.897Z" fill="#0D7DC0"/>
<path d="M246.801 266.766C246.801 267.664 246.645 268.025 246.223 268.791C246.509 268.982 246.796 269.173 247.091 269.37C246.58 269.71 246.067 270.047 245.554 270.382C245.268 270.57 244.983 270.758 244.689 270.952C243.908 271.395 243.908 271.395 243.04 271.395C243.04 271.586 243.04 271.777 243.04 271.974C242.301 272.483 242.301 272.483 241.34 273.041C241.025 273.227 240.709 273.413 240.384 273.605C240.115 273.735 239.845 273.865 239.568 273.999C239.377 273.903 239.186 273.808 238.989 273.71C239.255 273.482 239.52 273.255 239.794 273.021C243.396 270 243.396 270 246.801 266.766Z" fill="#0D8ED2"/>
<path d="M259.243 151.032C263.062 151.032 266.881 151.032 270.816 151.032C270.816 151.128 270.816 151.223 270.816 151.322C271.532 151.465 271.532 151.465 272.263 151.611C272.167 151.802 272.072 151.993 271.973 152.19C271.643 152.144 271.313 152.098 270.973 152.051C269.699 151.892 268.437 151.837 267.154 151.809C266.812 151.8 266.812 151.8 266.463 151.79C265.744 151.772 265.025 151.755 264.306 151.737C263.815 151.725 263.323 151.712 262.832 151.7C261.636 151.669 260.439 151.639 259.243 151.611C259.243 151.42 259.243 151.229 259.243 151.032Z" fill="#0B8FD2"/>
<path d="M180.544 130.2C184.094 130.313 187.481 130.653 190.96 131.358C191.491 131.462 192.022 131.567 192.554 131.672C193.952 131.948 195.35 132.23 196.747 132.515C196.747 132.706 196.747 132.897 196.747 133.094C194.684 132.814 192.632 132.523 190.594 132.1C187.257 131.409 183.93 130.872 180.544 130.49C180.544 130.394 180.544 130.299 180.544 130.2Z" fill="#0D7EC3"/>
<path d="M291.069 167.524C292.066 168.522 292.531 169.914 292.805 171.286C292.996 171.286 293.187 171.286 293.384 171.286C293.384 172.813 293.384 174.341 293.384 175.915C293.098 175.915 292.811 175.915 292.516 175.915C292.484 175.639 292.453 175.362 292.42 175.078C292.165 172.999 291.854 171.03 291.239 169.021C291.069 168.392 291.069 168.392 291.069 167.524Z" fill="#0B8ACB"/>
<path d="M235.807 134.251C235.902 134.442 235.998 134.633 236.096 134.83C235.714 134.83 235.332 134.83 234.939 134.83C234.939 135.021 234.939 135.212 234.939 135.408C234.366 135.408 233.793 135.408 233.203 135.408C233.203 135.599 233.203 135.79 233.203 135.987C232.155 136.368 231.439 136.566 230.309 136.566C230.309 136.757 230.309 136.948 230.309 137.144C230.118 137.144 229.927 137.144 229.731 137.144C229.731 137.335 229.731 137.526 229.731 137.723C229.158 137.723 228.585 137.723 227.995 137.723C227.995 137.914 227.995 138.105 227.995 138.302C227.804 138.302 227.613 138.302 227.416 138.302C227.416 138.015 227.416 137.729 227.416 137.434C230.12 136.088 232.937 135.169 235.807 134.251Z" fill="#0C8ECF"/>
<path d="M277.181 245.354C277.372 245.45 277.563 245.545 277.76 245.644C272.279 251.2 272.279 251.2 270.527 252.009C270.67 251.579 270.67 251.579 270.816 251.141C271.007 251.141 271.198 251.141 271.395 251.141C271.395 250.95 271.395 250.759 271.395 250.562C271.827 250.147 271.827 250.147 272.389 249.694C273.175 249.074 273.175 249.074 273.709 248.248C273.9 248.248 274.091 248.248 274.288 248.248C274.288 247.866 274.288 247.484 274.288 247.09C274.604 246.965 274.92 246.84 275.246 246.711C276.051 246.369 276.621 246.047 277.181 245.354Z" fill="#0A80C3"/>
<path d="M244.197 269.08C243.742 270.396 242.695 271.053 241.629 271.865C241.449 272.007 241.268 272.148 241.081 272.294C240.226 272.956 239.412 273.571 238.411 273.999C239.517 272.25 240.793 271.154 242.461 269.948C242.667 269.785 242.872 269.623 243.084 269.455C243.619 269.08 243.619 269.08 244.197 269.08Z" fill="#1871AF"/>
<path d="M190.381 131.936C191.673 131.889 192.766 132.051 194.016 132.37C195.154 132.659 196.149 132.856 197.325 132.804C197.325 132.995 197.325 133.186 197.325 133.382C197.612 133.478 197.898 133.573 198.193 133.672C197.334 133.672 196.475 133.672 195.589 133.672C195.589 133.481 195.589 133.29 195.589 133.093C194.444 133.093 193.298 133.093 192.117 133.093C192.117 132.902 192.117 132.711 192.117 132.514C191.544 132.514 190.972 132.514 190.381 132.514C190.381 132.323 190.381 132.132 190.381 131.936Z" fill="#0B8ECD"/>
<path d="M168.681 129.621C172.548 129.764 172.548 129.764 176.493 129.91C176.493 130.006 176.493 130.101 176.493 130.2C175.157 130.2 173.82 130.2 172.443 130.2C172.443 130.391 172.443 130.582 172.443 130.778C172.825 130.874 173.207 130.969 173.6 131.068C172.552 131.417 172.257 131.225 171.285 130.778C171.285 130.587 171.285 130.397 171.285 130.2C170.426 130.2 169.567 130.2 168.681 130.2C168.681 130.009 168.681 129.818 168.681 129.621Z" fill="#118ACC"/>
<path d="M238.7 272.842C238.891 272.937 239.082 273.033 239.279 273.131C239.088 273.322 238.897 273.513 238.7 273.71C239.177 273.805 239.655 273.901 240.147 273.999C238.064 275.735 238.064 275.735 236.385 275.735C236.863 274.493 237.756 273.745 238.7 272.842Z" fill="#3585BC"/>
<path d="M306.115 149.296C307.828 149.867 308.539 152.16 309.342 153.697C309.696 154.447 309.892 154.956 309.786 155.788C309.72 155.937 309.654 156.086 309.587 156.24C309.551 156.055 309.515 155.87 309.478 155.679C309.418 155.482 309.359 155.285 309.297 155.083C309.106 154.987 308.915 154.892 308.719 154.793C308.515 154.316 308.325 153.832 308.14 153.347C307.795 152.638 307.447 151.933 307.091 151.231C306.997 151.044 306.903 150.857 306.806 150.665C306.576 150.208 306.346 149.752 306.115 149.296Z" fill="#0A7FC2"/>
<path d="M293.384 182.858C293.42 185.101 293.42 185.101 293.095 185.752C293.028 186.438 292.976 187.125 292.932 187.813C292.908 188.184 292.883 188.555 292.858 188.937C292.832 189.365 292.832 189.365 292.805 189.802C292.71 189.802 292.614 189.802 292.516 189.802C292.171 187.579 292.164 185.376 292.516 183.148C293.095 182.858 293.095 182.858 293.384 182.858Z" fill="#0F86CB"/>
<path d="M249.984 96.6377C249.984 96.8287 249.984 97.0196 249.984 97.2164C249.793 97.2164 249.602 97.2164 249.405 97.2164C249.405 97.5983 249.405 97.9802 249.405 98.3737C248.832 98.5647 248.26 98.7556 247.669 98.9524C247.669 99.1433 247.669 99.3343 247.669 99.531C247.287 99.4355 246.905 99.3401 246.512 99.2417C246.831 98.9153 247.15 98.59 247.47 98.2652C247.648 98.0839 247.826 97.9027 248.009 97.7159C249.149 96.6377 249.149 96.6377 249.984 96.6377Z" fill="#0B90D1"/>
<path d="M255.481 258.085C255.577 258.467 255.672 258.849 255.771 259.242C255.389 259.242 255.007 259.242 254.613 259.242C254.613 259.624 254.613 260.006 254.613 260.4C254.231 260.4 253.849 260.4 253.456 260.4C253.456 260.591 253.456 260.782 253.456 260.978C253.265 260.883 253.074 260.787 252.877 260.689C253.476 259.353 254.145 258.684 255.481 258.085Z" fill="#0F87C8"/>
<path d="M203.98 148.718C204.701 149.066 205.334 149.428 206.005 149.875C206.005 150.066 206.005 150.257 206.005 150.454C206.172 150.525 206.339 150.597 206.512 150.671C207.25 151.081 207.746 151.575 208.32 152.19C208.225 152.381 208.129 152.572 208.031 152.768C207.409 152.203 206.788 151.636 206.168 151.069C205.991 150.908 205.814 150.747 205.632 150.581C205.463 150.427 205.294 150.272 205.12 150.112C204.964 149.97 204.808 149.828 204.647 149.681C204.269 149.296 204.269 149.296 203.98 148.718Z" fill="#0980C7"/>
<path d="M243.04 271.395C243.326 271.49 243.613 271.585 243.908 271.684C242.954 272.752 242.006 273.381 240.725 273.999C240.083 273.884 240.083 273.884 239.568 273.709C240.037 273.418 240.508 273.129 240.978 272.841C241.371 272.6 241.371 272.6 241.772 272.353C242.461 271.973 242.461 271.973 243.04 271.973C243.04 271.782 243.04 271.591 243.04 271.395Z" fill="#1877BD"/>
<path d="M241.304 271.684C241.686 271.875 242.068 272.066 242.461 272.262C241.993 272.56 241.522 272.855 241.051 273.148C240.789 273.313 240.527 273.477 240.257 273.647C240.03 273.763 239.802 273.879 239.568 273.998C239.377 273.903 239.186 273.807 238.989 273.709C239.753 273.041 240.517 272.372 241.304 271.684Z" fill="#1B87CB"/>
<path d="M208.32 152.768C208.702 152.768 209.084 152.768 209.477 152.768C209.875 153.346 209.875 153.346 210.345 154.214C210.909 154.998 211.494 155.763 212.081 156.529C210.965 156.081 210.337 155.38 209.55 154.485C209.318 154.226 209.087 153.966 208.849 153.698C208.32 153.057 208.32 153.057 208.32 152.768Z" fill="#0B81C4"/>
<path d="M247.669 130.778C246.64 131.808 245.167 131.922 243.763 131.972C243.525 131.96 243.286 131.948 243.04 131.936C244.498 130.963 245.933 130.694 247.669 130.778Z" fill="#0E7CC3"/>
<path d="M291.937 191.539C292.033 191.539 292.128 191.539 292.227 191.539C292.227 192.494 292.227 193.449 292.227 194.432C292.036 194.432 291.845 194.432 291.648 194.432C291.648 195.005 291.648 195.578 291.648 196.168C291.457 196.168 291.266 196.168 291.069 196.168C291.159 195.614 291.25 195.059 291.341 194.505C291.391 194.196 291.441 193.887 291.493 193.569C291.615 192.881 291.756 192.213 291.937 191.539Z" fill="#128BD2"/>
<path d="M229.731 136.565C228.272 137.38 227.061 137.872 225.391 138.012C226.669 136.938 228.062 136.023 229.731 136.565Z" fill="#0781C4"/>
<path d="M286.151 234.649C286.437 234.745 286.724 234.84 287.019 234.939C286.621 235.662 286.621 235.662 286.151 236.385C285.96 236.385 285.769 236.385 285.572 236.385C285.572 236.576 285.572 236.767 285.572 236.964C285.381 236.964 285.19 236.964 284.993 236.964C284.898 237.155 284.802 237.346 284.704 237.543C284.704 237.256 284.704 236.97 284.704 236.675C284.895 236.675 285.086 236.675 285.283 236.675C285.318 236.448 285.354 236.221 285.391 235.988C285.572 235.228 285.572 235.228 286.151 234.649Z" fill="#108CD0"/>
<path d="M290.78 196.168C290.875 196.168 290.971 196.168 291.069 196.168C291.077 196.638 291.083 197.108 291.087 197.578C291.091 197.84 291.094 198.102 291.098 198.372C291.069 199.061 291.069 199.061 290.78 199.64C290.398 199.544 290.016 199.449 289.623 199.351C289.718 199.16 289.814 198.969 289.912 198.772C290.067 198.327 290.217 197.881 290.364 197.434C290.442 197.197 290.52 196.961 290.6 196.717C290.66 196.536 290.719 196.355 290.78 196.168Z" fill="#0F8BD7"/>
<path d="M285.861 158.555C286.052 158.555 286.243 158.555 286.44 158.555C286.44 158.746 286.44 158.937 286.44 159.133C286.631 159.133 286.822 159.133 287.019 159.133C287.019 159.324 287.019 159.515 287.019 159.712C287.21 159.712 287.401 159.712 287.597 159.712C287.597 159.903 287.597 160.094 287.597 160.291C287.788 160.291 287.979 160.291 288.176 160.291C288.176 160.482 288.176 160.673 288.176 160.869C288.367 160.869 288.558 160.869 288.755 160.869C288.659 161.251 288.564 161.633 288.465 162.027C288.174 161.703 287.885 161.377 287.597 161.05C287.436 160.869 287.275 160.688 287.109 160.501C286.729 160.001 286.729 160.001 286.729 159.423C286.538 159.423 286.347 159.423 286.151 159.423C286.055 159.136 285.96 158.85 285.861 158.555Z" fill="#1389D2"/>
<path d="M288.465 203.69C288.561 203.69 288.656 203.69 288.755 203.69C288.837 206.17 288.837 206.17 288.176 207.162C287.985 207.162 287.794 207.162 287.597 207.162C287.812 205.981 288.127 204.842 288.465 203.69Z" fill="#0B8DCF"/>
<path d="M280.075 153.347C280.457 153.347 280.839 153.347 281.232 153.347C281.232 153.92 281.232 154.492 281.232 155.083C280.468 154.796 279.704 154.51 278.917 154.215C279.299 154.119 279.681 154.024 280.075 153.925C280.075 153.734 280.075 153.543 280.075 153.347Z" fill="#0F8DD0"/>
<path d="M288.755 134.251C289.763 134.572 290.715 134.906 291.648 135.408C291.648 135.599 291.648 135.79 291.648 135.987C291.266 135.987 290.884 135.987 290.491 135.987C290.491 135.796 290.491 135.605 290.491 135.408C290.222 135.346 290.222 135.346 289.948 135.282C289.333 135.119 289.333 135.119 288.755 134.83C288.755 134.639 288.755 134.448 288.755 134.251Z" fill="#0D8DD6"/>
<path d="M242.172 105.606C242.267 105.606 242.363 105.606 242.461 105.606C242.461 106.466 242.461 107.325 242.461 108.21C241.888 108.497 241.888 108.497 241.304 108.789C241.846 106.583 241.846 106.583 242.172 105.606Z" fill="#0E8CD3"/>
<path d="M267.923 93.7441C269.143 93.8829 269.889 94.0816 270.816 94.9015C270.052 94.9015 269.288 94.9015 268.501 94.9015C268.501 94.7105 268.501 94.5196 268.501 94.3228C268.31 94.3228 268.119 94.3228 267.923 94.3228C267.923 94.1318 267.923 93.9409 267.923 93.7441Z" fill="#0D8DD1"/>
<path d="M293.384 136.565C294.243 137.043 295.103 137.52 295.988 138.012C295.702 138.108 295.415 138.203 295.12 138.301C295.12 138.492 295.12 138.683 295.12 138.88C294.929 138.88 294.738 138.88 294.541 138.88C294.541 138.498 294.541 138.116 294.541 137.723C294.35 137.723 294.159 137.723 293.963 137.723C293.963 137.532 293.963 137.341 293.963 137.144C293.772 137.144 293.581 137.144 293.384 137.144C293.384 136.953 293.384 136.762 293.384 136.565Z" fill="#118AD0"/>
<path d="M270.816 94.9014C271.771 95.1878 272.726 95.4742 273.709 95.7694C273.709 96.0558 273.709 96.3422 273.709 96.6374C273.518 96.6374 273.327 96.6374 273.131 96.6374C273.131 96.4464 273.131 96.2554 273.131 96.0587C272.558 96.0587 271.985 96.0587 271.395 96.0587C271.395 95.8677 271.395 95.6768 271.395 95.48C271.204 95.48 271.013 95.48 270.816 95.48C270.816 95.2891 270.816 95.0981 270.816 94.9014Z" fill="#0E8AC9"/>
<path d="M266.476 254.902C266.667 254.998 266.858 255.093 267.055 255.192C266.731 255.483 266.405 255.772 266.078 256.06C265.897 256.221 265.716 256.382 265.529 256.548C265.029 256.928 265.029 256.928 264.451 256.928C264.451 256.349 264.451 256.349 264.975 255.752C265.608 255.192 265.608 255.192 266.476 254.902Z" fill="#0B81C1"/>
<path d="M284.704 213.528C284.895 213.528 285.086 213.528 285.283 213.528C285.283 214.101 285.283 214.674 285.283 215.264C285.092 215.264 284.901 215.264 284.704 215.264C284.704 215.455 284.704 215.646 284.704 215.843C284.513 215.843 284.322 215.843 284.125 215.843C284.277 215.044 284.446 214.302 284.704 213.528Z" fill="#0D8ED2"/>
<path d="M309.587 194.432C309.778 194.623 309.969 194.814 310.165 195.01C309.879 195.87 309.592 196.729 309.297 197.614C309.202 197.614 309.106 197.614 309.008 197.614C308.936 195.408 308.936 195.408 309.587 194.432Z" fill="#0C8DCF"/>
<path d="M271.973 248.826C272.451 248.826 272.928 248.826 273.42 248.826C272.952 249.417 272.469 249.995 271.973 250.562C271.782 250.562 271.591 250.562 271.395 250.562C271.395 250.371 271.395 250.18 271.395 249.984C271.586 249.984 271.777 249.984 271.973 249.984C271.973 249.602 271.973 249.22 271.973 248.826Z" fill="#0E8CD3"/>
<path d="M289.912 163.763C290.103 163.763 290.294 163.763 290.491 163.763C290.491 163.954 290.491 164.145 290.491 164.341C290.682 164.341 290.873 164.341 291.069 164.341C291.069 164.914 291.069 165.487 291.069 166.077C290.23 165.384 290.056 164.83 289.912 163.763Z" fill="#0F8CD4"/>
<path d="M210.635 154.504C211.017 154.504 211.398 154.504 211.792 154.504C211.792 154.886 211.792 155.268 211.792 155.661C211.983 155.661 212.174 155.661 212.371 155.661C212.466 155.948 212.562 156.234 212.66 156.529C211.83 156.157 211.22 155.785 210.635 155.083C210.635 154.892 210.635 154.701 210.635 154.504Z" fill="#0E8DD2"/>
<path d="M178.229 133.094C178.993 133.094 179.757 133.094 180.544 133.094C180.449 133.476 180.353 133.858 180.255 134.251C179.586 133.965 178.918 133.678 178.229 133.383C178.229 133.288 178.229 133.192 178.229 133.094Z" fill="#0E8DD2"/>
<path d="M168.971 129.911C169.735 130.007 170.498 130.102 171.285 130.2C171.285 130.487 171.285 130.773 171.285 131.068C169.622 130.815 169.622 130.815 168.971 130.49C168.971 130.299 168.971 130.108 168.971 129.911Z" fill="#117BBC"/>
<path d="M243.04 122.678C243.613 122.964 243.613 122.964 244.197 123.256C244.197 123.829 244.197 124.402 244.197 124.992C243.04 123.654 243.04 123.654 243.04 122.678Z" fill="#0C8FD0"/>
</svg>
